<?xml version='1.0' encoding='utf-8'?>
<svg xmlns="http://www.w3.org/2000/svg" viewBox="0 0 640 480"> <path d="m327.75 149.34c0 5.9518-4.7066 10.584-10.698 10.584h-111.95c-6.0314 0-10.698-4.6319-10.698-10.584v-94.401c0-5.9518 4.6718-10.584 10.698-10.584h111.95c5.9916 0 10.698 4.6319 10.698 10.584v94.401zm130.51 12.058c-14.165-3.1128-19.3-10.389-19.3-17.083v-24.395s9.4182 2.1018 11.674 2.6845c4.5921 1.2053 7.5107 8.2478 7.6253 14.399 0.15439 6.146 0 24.395 0 24.395zm28.519 148.21c0-0.23404-3.9297-29.963-3.9297-29.963v-137.27c0-14.708-4.8262-26.656-14.787-36.692l-63.577-63.268c-4.3978 0-16.535 12.103-16.535 12.103 0 4.3978 31.557 35.72 31.557 35.72l-0.9363 53.267c0 18.911 15.37 34.241 34.356 34.241l8.5218 0.1146-3.0331 101.79 4.2434 34.904 19.105 103c0.70227 16.73-14.593 26.691-26.656 26.691-11.166 0-24.126-9.2239-24.126-21.127l0.2341-180.5c0-21.944-17.82-39.765-39.765-39.765h-38.365c2.6845-0.1544 2.7991-118.21 2.7991-143.27v-4.6319c0-21.362-17.432-38.754-38.833-38.754h-111.94c-21.401 0-38.833 17.392-38.833 38.754v409.14l189.61 3.1527 0.1942-239.03h35.8c8.208 0 14.902 6.6938 14.902 14.902v180c0 24.166 22.567 45.333 48.326 45.333 24.32 0 51.559-19.339 51.559-45.333-0.42831-5.9966-19.887-113.51-19.887-113.51z" fill="#96b566" stroke="#96b566"/> </svg>