<?xml version="1.0" encoding="UTF-8"?> <svg xmlns="http://www.w3.org/2000/svg" width="96" height="48" viewBox="0 0 96 48" fill="none"><g clip-path="url(#clip0_2_50)"><path d="M35.3229 10.2855H39.1347V11.0509C39.1347 12.1575 38.7853 13.0565 38.087 13.7459C37.3888 14.4289 36.489 14.7701 35.3875 14.7701C34.2138 14.7701 33.2422 14.3931 32.4717 13.6379C31.7158 12.8833 31.3376 11.9524 31.3376 10.8458C31.3376 9.73917 31.7158 8.81209 32.4717 8.04282C33.2275 7.28122 34.1632 6.89978 35.2794 6.89978C35.9776 6.89978 36.6221 7.05823 37.2122 7.37386C37.7952 7.6831 38.256 8.10352 38.5946 8.6351L36.953 9.57305C36.8019 9.33601 36.5786 9.14561 36.2835 9.00185C35.9885 8.85809 35.6608 8.78589 35.3005 8.78589C34.7027 8.78589 34.2131 8.98013 33.8317 9.36795C33.4502 9.76345 33.2595 10.2593 33.2595 10.8554C33.2595 11.4515 33.4464 11.9371 33.8208 12.3326C34.2022 12.7351 34.7347 12.9364 35.4189 12.9364C36.297 12.9364 36.8768 12.606 37.1578 11.9447H35.3222V10.2848L35.3229 10.2855Z" fill="white"></path><path d="M46.0461 14.6084H43.9725L42.6547 12.1722H41.9635V14.6084H40.0307V7.06207H43.0541C43.8246 7.06207 44.4685 7.30998 44.9869 7.80578C45.5123 8.28753 45.7754 8.90921 45.7754 9.67081C45.7754 10.1168 45.6602 10.5295 45.4298 10.9103C45.1994 11.2911 44.8864 11.5933 44.4902 11.8157L46.0454 14.6078L46.0461 14.6084ZM43.033 8.84084H41.9642V10.5334H43.033C43.2704 10.5404 43.465 10.465 43.616 10.3072C43.767 10.1494 43.8426 9.94427 43.8426 9.69253C43.8426 9.4408 43.767 9.23634 43.616 9.07789C43.465 8.91943 43.2704 8.84021 43.033 8.84021V8.84084Z" fill="white"></path><path d="M48.6592 11.6873V12.7977H51.5859V14.6091H46.7264V7.06207H51.5315V8.86257H48.6592V9.90849H51.2614V11.6873H48.6592Z" fill="white"></path><path d="M54.4365 11.6873V12.7977H57.3632V14.6091H52.5037V7.06207H57.3088V8.86257H54.4365V9.90849H57.0387V11.6873H54.4365Z" fill="white"></path><path d="M62.4486 10.8567V7.06207H64.3706V14.6084H62.8806L60.2131 10.8138V14.6084H58.2803V7.06207H59.7811L62.4486 10.8567Z" fill="white"></path><path d="M67.5027 7.06207V12.7434H70.105V14.6084H65.5693V7.06207H67.5021H67.5027Z" fill="white"></path><path d="M70.807 14.6084V7.06207H72.7398V14.6084H70.807Z" fill="white"></path><path d="M78.096 10.8567V7.06207H80.0179V14.6084H78.528L75.8605 10.8138V14.6084H73.9277V7.06207H75.4285L78.096 10.8567Z" fill="white"></path><path d="M83.1494 11.6873V12.7977H86.0762V14.6091H81.2166V7.06207H86.0218V8.86257H83.1494V9.90849H85.7517V11.6873H83.1494Z" fill="white"></path><path d="M31.6294 19.9991H34.5664C35.3293 19.9991 35.9699 20.247 36.4883 20.7428C37.0067 21.2386 37.2659 21.8711 37.2659 22.6404C37.2659 23.4096 37.0067 24.0415 36.4883 24.5373C35.9699 25.0332 35.3293 25.2811 34.5664 25.2811H33.5622V27.5448H31.6294V19.9984V19.9991ZM33.5622 23.4486H34.5664C34.7827 23.4486 34.9638 23.3732 35.1117 23.2224C35.2589 23.0716 35.3331 22.8774 35.3331 22.6404C35.3331 22.4033 35.2595 22.211 35.1117 22.0634C34.9638 21.9158 34.7821 21.8424 34.5664 21.8424H33.5622V23.4486Z" fill="white"></path><path d="M44.4909 26.5749C43.7203 27.3295 42.7846 27.7064 41.6832 27.7064C40.5818 27.7064 39.6275 27.3295 38.8646 26.5749C38.1018 25.8133 37.7197 24.8785 37.7197 23.7719C37.7197 22.6653 38.1011 21.7344 38.8646 20.9798C39.6275 20.2182 40.567 19.8374 41.6832 19.8374C42.7994 19.8374 43.728 20.2182 44.4909 20.9798C45.2614 21.7344 45.6461 22.6653 45.6461 23.7719C45.6461 24.8785 45.2608 25.8063 44.4909 26.5749ZM40.2253 25.2491C40.6208 25.6299 41.1072 25.8203 41.6832 25.8203C42.2592 25.8203 42.745 25.6299 43.1411 25.2491C43.5302 24.8606 43.7242 24.3687 43.7242 23.7719C43.7242 23.1752 43.5296 22.68 43.1411 22.3056C42.7526 21.9177 42.2662 21.7235 41.6832 21.7235C41.1002 21.7235 40.6144 21.9177 40.2253 22.3056C39.8368 22.6793 39.6422 23.1681 39.6422 23.7719C39.6422 24.3757 39.8368 24.8606 40.2253 25.2491Z" fill="white"></path><path d="M49.7824 27.5454H47.7414L45.625 19.999H47.7088L48.8749 24.7533L50.2246 19.999H51.7472L53.097 24.7533L54.2739 19.999H56.3475L54.2419 27.5454H52.201L50.9914 23.2869L49.7818 27.5454H49.7824Z" fill="white"></path><path d="M58.9395 24.6236V25.734H61.8662V27.5454H57.0067V19.999H61.8118V21.7995H58.9395V22.8454H61.5418V24.6242H58.9395V24.6236Z" fill="white"></path><path d="M68.7987 27.5454H66.7251L65.4074 25.1092H64.7162V27.5454H62.7834V19.999H65.8067C66.5773 19.999 67.2211 20.2469 67.7395 20.7427C68.265 21.2245 68.528 21.8462 68.528 22.6078C68.528 23.0537 68.4128 23.4665 68.1824 23.8473C67.952 24.2281 67.639 24.5303 67.2429 24.7526L68.7981 27.5447L68.7987 27.5454ZM65.7856 21.7778H64.7168V23.4703H65.7856C66.023 23.4773 66.2176 23.4019 66.3686 23.2441C66.5197 23.0863 66.5952 22.8812 66.5952 22.6295C66.5952 22.3777 66.5197 22.1733 66.3686 22.0148C66.2176 21.857 66.023 21.7778 65.7856 21.7778Z" fill="white"></path><path d="M35.3229 36.1588H39.1347V36.9242C39.1347 38.0309 38.7853 38.9298 38.087 39.6192C37.3888 40.3022 36.489 40.6434 35.3875 40.6434C34.2138 40.6434 33.2422 40.2665 32.4717 39.5113C31.7158 38.7567 31.3376 37.8258 31.3376 36.7191C31.3376 35.6125 31.7158 34.6854 32.4717 33.9162C33.2275 33.1546 34.1632 32.7731 35.2794 32.7731C35.9776 32.7731 36.6221 32.9316 37.2122 33.2472C37.7952 33.5565 38.256 33.9769 38.5946 34.5085L36.953 35.4464C36.8019 35.2094 36.5786 35.019 36.2835 34.8752C35.9885 34.7314 35.6608 34.6592 35.3005 34.6592C34.7027 34.6592 34.2131 34.8535 33.8317 35.2413C33.4502 35.6368 33.2595 36.1326 33.2595 36.7287C33.2595 37.3248 33.4464 37.8104 33.8208 38.2059C34.2022 38.6084 34.7347 38.8097 35.4189 38.8097C36.297 38.8097 36.8768 38.4794 37.1578 37.8181H35.3222V36.1582L35.3229 36.1588Z" fill="white"></path><path d="M41.9642 37.5606V38.671H44.8909V40.4824H40.0314V32.936H44.8365V34.7365H41.9642V35.7825H44.5664V37.5612H41.9642V37.5606Z" fill="white"></path><path d="M49.9763 36.73V32.9354H51.8982V40.4818H50.4083L47.7408 36.6872V40.4818H45.808V32.9354H47.3088L49.9763 36.73Z" fill="white"></path><path d="M55.0304 37.5606V38.671H57.9571V40.4824H53.0976V32.936H57.9027V34.7365H55.0304V35.7825H57.6326V37.5612H55.0304V37.5606Z" fill="white"></path><path d="M64.889 40.4818H62.8154L61.4976 38.0456H60.8064V40.4818H58.8736V32.9354H61.897C62.6675 32.9354 63.3114 33.1833 63.8298 33.6791C64.3552 34.1609 64.6182 34.7826 64.6182 35.5442C64.6182 35.9901 64.503 36.4029 64.2726 36.7837C64.0422 37.1645 63.7293 37.4667 63.3331 37.689L64.8883 40.4812L64.889 40.4818ZM61.8758 34.7142H60.807V36.4067H61.8758C62.1133 36.4137 62.3078 36.3384 62.4589 36.1805C62.6099 36.0227 62.6854 35.8176 62.6854 35.5659C62.6854 35.3142 62.6099 35.1097 62.4589 34.9512C62.3078 34.7928 62.1133 34.7136 61.8758 34.7136V34.7142Z" fill="white"></path><path d="M72.3616 40.4818H70.2778L69.9539 39.3931H67.4381L67.1143 40.4818H65.0195L67.5143 32.9354H69.8682L72.3629 40.4818H72.3616ZM68.6899 35.1672L67.9341 37.7331H69.4567L68.6899 35.1672Z" fill="white"></path><path d="M71.8867 32.9354H77.5558V34.8005H75.6877V40.4818H73.7549V34.8005H71.8867V32.9354Z" fill="white"></path><path d="M78.2579 40.4818V32.9354H80.1907V40.4818H78.2579Z" fill="white"></path><path d="M87.8579 39.5119C87.0874 40.2664 86.1517 40.644 85.0503 40.644C83.9488 40.644 82.9946 40.2671 82.2317 39.5119C81.4688 38.7503 81.0867 37.8161 81.0867 36.7089C81.0867 35.6016 81.4682 34.6714 82.2317 33.9168C82.9946 33.1552 83.9341 32.7737 85.0503 32.7737C86.1664 32.7737 87.0951 33.1545 87.8579 33.9168C88.6285 34.6714 89.0131 35.6023 89.0131 36.7089C89.0131 37.8155 88.6279 38.7426 87.8579 39.5119ZM83.5923 38.1861C83.9879 38.5669 84.4743 38.7573 85.0503 38.7573C85.6263 38.7573 86.112 38.5669 86.5082 38.1861C86.8973 37.7983 87.0912 37.3056 87.0912 36.7089C87.0912 36.1121 86.8966 35.6163 86.5082 35.2426C86.1197 34.8547 85.6333 34.6605 85.0503 34.6605C84.4672 34.6605 83.9815 34.8547 83.5923 35.2426C83.2039 35.6163 83.0093 36.1051 83.0093 36.7089C83.0093 37.3127 83.2039 37.7976 83.5923 38.1861Z" fill="white"></path><path d="M94.0781 36.73V32.9354H96V40.4818H94.5101L91.8426 36.6872V40.4818H89.9098V32.9354H91.4106L94.0781 36.73Z" fill="white"></path><path d="M25.2877 18.9947L15.0445 1.28365C14.055 -0.427395 11.5808 -0.427395 10.5913 1.28365L0.348136 18.9947H4.80126L12.8179 5.13382L20.8345 18.9947H13.4605C12.0403 18.9947 10.8896 20.1441 10.8896 21.5613V25.1546H2.5747C0.595176 25.1546 -0.641304 27.2937 0.348136 29.0048L10.5913 46.7158C11.5808 48.4268 14.055 48.4268 15.0445 46.7158L25.2877 29.0048H20.8345L12.8179 42.8656L4.80126 29.0048H12.1753C13.5955 29.0048 14.7462 27.8553 14.7462 26.4382V22.8449H23.0611C25.0406 22.8449 26.2771 20.7057 25.2877 18.9947Z" fill="#39A935"></path></g><defs><clipPath id="clip0_2_50"><rect width="96" height="48" fill="white"></rect></clipPath></defs></svg> 