<svg width="1540" height="858" viewBox="0 0 1540 858" fill="none" xmlns="http://www.w3.org/2000/svg">
<g clipPath="url(#clip0_408_1321)">
<path d="M214.087 300.383C212.744 303.638 211.146 307.851 209.291 313.085C207.437 318.319 206.03 322.723 205.007 326.298C203.664 326.936 202.449 326.489 201.426 324.829C202.449 322.915 202.961 320.425 202.961 317.489C202.961 311.553 200.019 306.064 194.072 300.829C188.19 295.595 178.726 292.978 165.873 292.978C152.316 292.978 141.318 296.872 132.877 304.532C124.437 312.191 120.216 322.404 120.216 335.17C120.216 345 122.582 354.127 127.314 362.617C132.046 371.106 137.289 378.957 143.044 386.106C147.457 391.723 151.102 396.383 153.915 400.085C156.857 403.851 159.159 407.298 160.757 410.425C162.484 413.553 163.699 416.489 164.338 419.234C165.041 421.978 165.361 425.361 165.361 429.319C165.361 436.212 163.763 442.915 160.565 449.425C157.304 456 153.084 462 147.84 467.553C142.597 473.106 136.842 478.085 130.575 482.489C124.373 486.893 118.17 490.404 112.095 493.021C96.8764 499.532 79.931 502.787 61.323 502.787C53.5857 502.787 45.8484 502.149 38.239 500.808C30.6935 499.532 23.6596 497.361 17.2011 494.425C15.4746 493.468 13.94 492.574 12.6611 491.744C11.3182 490.978 10.4869 490.021 10.1033 489.064C11.4461 483.51 13.0447 477.191 14.9631 470.234C16.8175 463.212 18.4161 457.404 19.7589 452.808C19.7589 452.106 20.3344 451.851 21.2936 451.851C22.3167 451.851 22.8283 452.617 22.8283 454.276C21.8052 457.276 21.2936 460.149 21.2936 463.149C21.2936 472.276 25.1942 480.319 32.9955 487.404C40.7328 494.425 52.8184 497.872 68.9964 497.872C75.0712 497.872 81.2738 497.298 87.5404 496.149C93.807 495 99.4981 493.276 104.55 490.978C115.037 486.446 123.925 480 131.215 471.638C138.504 463.34 142.149 453.446 142.149 442.021C142.149 436.468 140.742 430.787 138.057 425.106C135.307 419.425 130.064 411.829 122.326 402.319C115.548 393.829 110.369 386.298 106.852 379.787C103.335 373.212 101.544 365.744 101.544 357.191C101.544 348.638 103.463 340.276 107.363 331.787C111.264 323.298 116.06 315.766 121.815 309.191C123.861 306.957 126.675 304.212 130.192 301.085C133.772 298.021 137.993 295.149 142.917 292.532C147.84 289.978 153.595 287.617 160.182 285.702C166.768 283.723 174.122 282.766 182.243 282.766C187.678 282.766 192.921 283.468 198.037 284.936C203.089 286.404 207.629 289.212 211.721 293.489C213.384 295.787 214.279 298.085 214.279 300.319L214.087 300.383Z" fill="#2B2523"/>
<path d="M411.996 466.596C413.339 465.958 413.979 466.596 413.979 468.575C411.996 470.235 410.014 472.213 408.16 474.703C406.305 477.192 404.707 479.362 403.364 481.341C400.934 485.618 396.202 488.554 389.104 490.149C380.663 492.128 371.455 493.852 361.736 495.32C351.888 496.788 341.913 498.192 331.81 499.469C321.642 500.745 311.667 501.766 301.883 502.405C292.036 503.043 282.764 503.362 273.94 503.362C261.087 503.362 250.6 502.979 242.479 502.149C234.358 501.383 228.027 500.043 223.423 498.192C218.819 496.405 215.75 494.298 214.023 491.809C212.361 489.383 211.465 486.511 211.465 483.256C211.465 477.32 213.384 471.128 217.029 464.617C218.435 462.32 221.441 457.277 226.173 449.426C230.905 441.575 235.828 433.277 240.944 424.724C245.996 415.979 250.536 408.192 254.628 401.171C258.657 394.149 260.703 390.511 260.703 390.128C260.703 389.107 260.127 388.469 259.104 388.213C258.081 387.83 255.715 387.703 252.006 387.703C250.28 387.703 249.449 387.256 249.449 386.171C249.449 383.937 251.495 382.469 255.523 381.83C263.325 380.809 269.016 376.915 272.789 370.086C274.131 367.788 277.073 362.745 281.677 354.894C286.281 347.043 291.013 338.617 295.809 329.681C300.796 320.681 305.209 312.511 309.045 305.171C312.946 297.83 314.864 293.49 314.864 292.149C314.864 290.809 313.841 290.171 311.795 290.171C301.692 290.171 291.524 290.554 281.421 291.192C271.254 291.83 262.302 293.107 254.5 295.086L253.477 294.639C254.117 289.086 255.459 285.32 257.506 283.405C267.993 284.043 279.055 284.554 290.693 284.873C302.395 285.192 313.457 285.383 324.008 285.383C327.781 285.383 334.175 285.192 343.32 284.873C352.4 284.554 362.695 284.234 374.013 283.915C385.331 283.596 396.777 283.277 408.288 282.958C419.798 282.639 429.581 282.447 437.702 282.447C439.748 282.447 440.771 283.277 440.771 284.873C440.068 286.532 438.725 289.022 436.679 292.469C434.697 295.852 432.778 299.426 431.052 303.064L429.07 302.554C429.07 300.575 428.686 298.788 427.791 297.128C426.959 295.532 426 294.575 425.041 294.192C414.554 292.596 403.236 291.383 391.022 290.809C378.873 290.171 366.659 289.788 354.446 289.788C349.075 289.788 344.982 291.447 342.296 294.703C333.152 306.447 323.88 319.788 314.608 334.66C305.336 349.532 296.576 364.022 288.455 378C287.112 380.937 288.135 382.469 291.524 382.469C296.256 382.788 300.988 382.915 305.656 382.915H320.363C335.902 382.915 349.586 382.532 361.224 381.703C372.926 380.873 384.692 379.149 396.522 376.532L397.992 378C397.289 379.341 396.522 380.937 395.435 382.915C394.411 384.894 393.58 386.617 392.877 388.341C392.557 389.617 391.214 390.256 388.848 390.256C380.024 389.937 370.496 389.681 360.201 389.49C349.906 389.362 339.483 389.234 328.996 389.234H306.168C299.07 389.234 292.292 389.426 285.897 389.745C283.148 389.745 281.357 390.703 280.334 392.681C274.579 402.511 268.696 412.788 262.749 423.575C256.866 434.362 251.687 444.83 247.275 454.979C243.885 462.511 242.223 469.213 242.223 475.086C242.223 490.405 254.245 498.064 278.288 498.064C286.728 498.064 297.151 497.426 309.493 496.086C321.834 494.809 334.431 492.766 347.284 490.022C360.137 487.277 372.414 483.894 384.116 479.937C395.754 476.043 404.962 471.639 411.804 466.724L411.996 466.596Z" fill="#2B2523"/>
<path d="M473 338.68C472.296 338.999 471.657 339.063 470.953 338.872C470.314 338.744 469.93 338.297 469.93 337.659C470.953 335.042 471.976 331.851 473 328.021C474.023 324.319 474.854 320.936 475.493 317.999C475.493 314.744 477.54 311.936 481.568 309.702C490.329 305.106 500.24 300.893 511.238 296.872C522.301 292.978 533.172 289.914 544.042 287.616C563.993 283.659 584.775 281.744 606.452 281.744C633.181 281.744 653.899 284.616 668.607 290.297C683.378 296.042 690.732 306.191 690.732 320.936C690.732 328.148 688.238 335.553 683.378 343.212C678.454 350.936 671.612 358.021 662.852 364.531C654.027 371.106 643.285 376.723 630.56 381.446C617.962 386.17 603.958 389.361 588.74 391.021C585.734 391.34 584.711 392.616 585.734 394.914C592.193 406.404 601.017 420.638 612.399 437.808C623.717 454.978 636.506 473.17 650.702 492.446C658.184 502.276 666.56 511.723 675.832 520.851C685.04 529.978 695.208 538.085 706.014 545.17C716.821 552.191 728.395 557.744 740.736 562.085C753.078 566.297 765.867 568.468 779.103 568.468C799.438 568.468 819.516 563.425 839.531 553.276C841.513 551.936 842.6 552.319 842.6 554.234C842.6 555.574 841.833 556.34 840.554 556.659C829.748 562.212 818.429 566.744 806.6 570.191C794.77 573.638 782.045 575.361 768.488 575.361C749.241 575.361 732.296 573.51 717.716 569.68C703.137 565.978 689.772 560.106 677.623 552.319C665.409 544.468 653.835 534.319 642.837 521.936C631.838 509.489 620.392 494.489 608.562 476.808C605.173 471.638 601.145 465.191 596.413 457.468C591.681 449.808 586.757 441.893 581.642 433.723C576.59 425.553 571.73 417.638 567.19 409.978C562.65 402.319 558.813 395.999 555.744 391.085C555.744 389.744 556.256 389.106 557.279 389.106C572.498 389.106 586.502 387.829 599.099 385.212C611.824 382.595 622.758 378.574 632.03 373.212C641.366 367.851 648.656 360.957 653.899 352.595C659.207 344.361 661.765 334.595 661.765 323.425C661.765 319.531 660.997 315.382 659.526 310.978C657.992 306.574 655.306 302.616 651.342 299.234C647.505 295.787 642.325 292.914 635.931 290.68C629.472 288.382 621.415 287.234 611.568 287.234C608.179 287.234 604.854 287.68 601.656 288.446C598.459 289.276 595.646 290.999 593.28 293.616C589.571 297.829 584.327 304.978 577.549 314.936C570.835 324.893 563.354 336.446 555.233 349.531C547.112 362.616 538.607 376.468 529.846 391.212C521.086 405.893 512.709 420.191 504.78 434.106C496.787 447.957 489.753 460.595 483.678 471.829C477.604 483.063 473 491.999 469.994 498.574C469.674 499.212 468.971 499.531 468.012 499.531C466.285 499.212 464.623 498.957 462.96 498.829C461.234 498.638 459.571 498.574 457.909 498.574H451.77C449.404 498.574 446.846 498.893 444.16 499.531C440.068 501.829 436.231 504.893 432.459 508.851C431.755 508.851 431.052 508.723 430.156 508.404C429.325 508.021 429.261 507.574 429.901 506.936C460.978 463.085 487.259 424.085 508.553 389.744C529.846 355.468 548.263 324.063 563.865 295.595C564.888 292.978 565.144 291.319 564.632 290.744C564.121 290.106 562.97 289.723 561.307 289.723C551.14 290.425 540.973 292.34 530.87 295.595C520.702 298.851 511.239 302.808 502.414 307.34C496.659 310.595 491.288 314.999 486.236 320.553C481.121 326.106 476.708 332.17 473 338.744V338.68Z" fill="#2B2523"/>
<path d="M1431.72 90.4471C1408.58 67.213 1383.45 49.1492 1357.93 35.4258L1354.99 67.9151L1395.21 108.766C1417.72 136.66 1495.6 227.043 1477 377.681C1462.8 492.83 1399.88 556.532 1369.12 574.787H1481.47C1586.28 429.128 1537.17 195.639 1431.72 90.3832V90.4471Z" fill="#2B2523"/>
<path d="M1421.62 146.872C1410.24 123.191 1374.81 87.9573 1349.81 66.3828L1326.09 74.4254C1373.34 112.532 1447.2 232.213 1414.59 376.468C1386.83 499.468 1304.86 566.617 1201.01 574.851H1372.7C1382.87 562.021 1396.87 544.532 1412.16 526.468C1442.21 491.17 1462.74 411.702 1472.2 346.276C1481.66 280.979 1440.55 185.553 1421.62 146.808V146.872Z" fill="#009C42"/>
<path d="M1182.85 66.2556C1172.17 67.3408 1169.87 77.6812 1162.71 83.4897C1154.08 81.7663 1153.56 71.4259 1156.76 64.0216C1162.45 51.5748 1180.48 52.5322 1182.85 66.3195V66.2556Z" fill="#E0171B"/>
<path d="M1275.12 112.723C1272.5 165.446 1223.65 160.34 1176.46 160.978C1149.6 161.489 1146.02 170.361 1142.5 176.106C1138.98 181.787 1137.32 182.617 1127.86 196.212C1115.45 213.574 1105.67 214.595 1089.88 213.127C1073.82 211.659 1065.58 200.042 1077.98 175.978C1087.57 157.021 1135.66 70.9145 1143.72 57.1273C1151.71 43.4039 1149.92 37.1486 1140.58 26.3613C1234.33 26.3613 1262.46 40.2124 1313.11 66.2549C1317.07 68.3613 1321.55 70.9783 1326.15 74.3613L1355.57 64.4039L1358.7 35.1698C1251.59 -15.128 1134.83 -1.27696 1101 14.1698C1124.79 37.1486 1130.93 43.3401 1124.79 52.4677C1118.52 61.5954 1088.28 121.276 1077.21 139.659C1066.15 158.042 1053.55 182.553 1056.69 200.936C1059.82 225.383 1078.94 231 1101 231.446C1119.8 231.957 1134.32 220.723 1159.51 176.489C1210.22 174.957 1248.33 177.829 1267.32 161.042C1272.12 228.319 1208.68 277.34 1123.19 278.872C1037.7 280.34 995.045 271.212 944.337 289.532V355.34C956.103 343.851 974.263 321.574 1063.02 317.042C1151.77 312.51 1194.42 301.723 1241.94 263.617C1289.38 225.383 1293.6 168.574 1275.25 112.787L1275.12 112.723Z" fill="#E0171B"/>
<path d="M1454.17 399.83C1431.08 500.171 1373.79 552.383 1344.44 574.851H1410.37C1452.12 535.341 1490.87 478.596 1496.82 350.362C1503.6 183.766 1399.69 88.0217 1356.97 56.043L1353.46 65.1706L1341.95 69.0642C1410.37 117.639 1485.18 255.192 1454.23 399.83H1454.17Z" fill="white"/>
<path d="M919.142 317.362C910.638 306.256 910.382 306.639 905.458 302.107C900.598 297.575 892.35 294.383 884.229 291.575C876.108 288.766 865.493 287.362 852.512 287.362C842.025 287.362 832.241 289.405 823.225 293.362C814.209 297.383 805.64 302.171 797.775 307.788C788.695 314.043 778.528 323.298 767.082 335.49C755.7 347.745 745.021 361.405 734.854 376.596C724.75 391.724 716.374 407.809 709.659 424.724C703.009 441.639 699.684 458.107 699.684 474.192C699.684 482.937 701.283 490.086 704.544 495.639C707.805 501.256 712.025 505.596 717.269 508.724C722.512 511.851 728.587 514.086 735.429 515.234C742.271 516.447 749.305 517.086 756.595 517.086C786.905 517.086 814.529 509.298 839.467 493.788C864.406 478.277 888.065 455.681 910.446 426C911.533 424.596 912.428 423.83 913.132 423.83C914.602 423.83 915.306 426.32 915.306 431.171C915.306 433.979 914.858 436.341 913.963 438.192C913.068 440.171 912.045 441.958 910.958 443.745C894.332 467.873 872.399 486.766 845.158 500.554C817.854 514.341 787.992 521.235 755.444 521.235C745.021 521.235 734.917 520.277 725.39 518.362C715.798 516.447 707.357 513.064 699.876 508.405C692.522 503.681 686.575 497.426 682.291 489.575C677.943 481.724 675.769 471.83 675.769 460.022C675.769 446.745 678.454 433.149 683.634 419.171C688.877 405.256 695.655 391.788 703.968 378.83C712.281 365.937 721.617 353.873 731.848 342.703C742.143 331.532 752.63 322.149 763.053 314.426C775.97 304.66 790.485 296.873 806.344 291.128C822.266 285.32 838.892 282.447 856.221 282.447C869.201 282.447 882.822 282.447 896.058 286.405C926.88 295.532 944.145 289.341 945.935 288.703C950.795 286.979 955.207 316.469 951.179 325.341C947.214 334.213 946.575 348.192 944.081 355.149C944.081 355.149 924.13 323.873 918.951 317.171L919.142 317.362Z" fill="#E0171B"/>
<path d="M1.08706 840.064C0.12789 839.617 0 839.298 0 837.446C0 834 0.255779 831.319 0.383669 830.17C0.447614 829.404 0.575503 829.085 0.959172 829.085C1.34284 829.085 1.47073 829.276 1.47073 829.851C1.47073 830.489 1.47073 831.383 1.72651 832.404C2.81357 837.447 7.48154 839.361 12.2135 839.361C18.9916 839.361 22.3167 834.638 22.3167 830.234C22.3167 825.51 20.2705 822.766 14.1957 817.915L10.9985 815.361C3.51696 809.425 1.79045 805.149 1.79045 800.489C1.79045 793.149 7.48154 788.17 16.4978 788.17C19.2474 788.17 21.2936 788.425 23.0841 788.808C24.4269 789.127 25.0024 789.191 25.5779 789.191C26.1534 789.191 26.2813 789.319 26.2813 789.638C26.2813 789.957 26.0255 792.255 26.0255 796.915C26.0255 798 25.8976 798.446 25.514 798.446C25.0664 798.446 25.0024 798.127 24.9385 797.553C24.8745 796.723 24.4269 794.872 24.0432 794.106C23.5956 793.34 21.6773 790.468 15.1549 790.468C10.2312 790.468 6.39448 793.404 6.39448 798.383C6.39448 802.34 8.24888 804.766 15.091 809.936L17.0733 811.404C25.45 817.787 27.4323 822.063 27.4323 827.553C27.4323 830.361 26.2813 835.532 21.3576 838.915C18.3522 840.957 14.4515 841.787 10.6148 841.787C7.28971 841.787 4.02852 841.34 1.08706 839.936V840.064Z" fill="#2B2523"/>
<path d="M88.9471 821.108C88.9471 827.683 88.9471 833.108 89.2669 835.981C89.5226 837.959 89.9063 839.427 92.0804 839.747C93.0396 839.874 94.6382 840.002 95.2777 840.002C95.6613 840.002 95.8532 840.193 95.8532 840.385C95.8532 840.768 95.4695 840.959 94.7022 840.959C90.8015 840.959 86.3254 840.768 86.0057 840.768C85.622 840.768 81.1459 840.959 79.0357 840.959C78.2684 840.959 77.8847 840.832 77.8847 840.385C77.8847 840.193 78.0126 840.002 78.4602 840.002C79.0996 840.002 79.9309 839.874 80.5704 839.747C82.0411 839.491 82.3608 837.959 82.6166 835.981C82.9363 833.108 82.9363 827.683 82.9363 821.108V813.896C82.9363 813.896 82.7445 813.449 82.5527 813.449H52.4986C52.4986 813.449 52.051 813.513 52.051 813.896V821.108C52.051 827.683 52.051 833.108 52.3707 835.981C52.5626 837.959 53.0102 839.427 55.1843 839.747C56.2074 839.874 57.7421 840.002 58.3815 840.002C58.7652 840.002 58.957 840.193 58.957 840.385C58.957 840.768 58.5734 840.959 57.806 840.959C53.9054 840.959 49.4293 840.768 49.1095 840.768C48.7898 840.768 44.3137 840.959 42.1396 840.959C41.3722 840.959 40.9886 840.832 40.9886 840.385C40.9886 840.193 41.1164 840.002 41.5641 840.002C42.2035 840.002 43.0348 839.874 43.6742 839.747C45.081 839.491 45.4007 837.959 45.7205 835.981C46.0402 833.108 46.0402 827.683 46.0402 821.108V809.044C46.0402 798.385 46.0402 796.47 45.9123 794.236C45.7844 791.938 45.2089 790.789 42.9069 790.342C42.3314 790.215 41.1164 790.151 40.477 790.151C40.2212 790.151 39.9015 790.023 39.9015 789.768C39.9015 789.385 40.2852 789.193 41.0525 789.193C44.2497 789.193 48.7259 789.385 49.0456 789.385C49.4293 789.385 53.8415 789.193 56.0156 789.193C56.7829 789.193 57.1666 789.321 57.1666 789.768C57.1666 790.023 56.8469 790.151 56.5911 790.151C56.0795 790.151 55.6319 790.151 54.8006 790.342C52.8823 790.661 52.3068 791.874 52.1789 794.236C52.051 796.406 52.051 798.385 52.051 809.044V810.513C52.051 810.832 52.2428 810.895 52.4986 810.895H82.5527C82.5527 810.895 82.9363 810.896 82.9363 810.513V809.044C82.9363 798.385 82.9363 796.47 82.8084 794.236C82.6806 791.938 82.1051 790.789 79.7391 790.342C79.1636 790.215 77.9486 790.151 77.3092 790.151C77.0534 790.151 76.7337 790.023 76.7337 789.768C76.7337 789.385 77.1174 789.193 77.8847 789.193C81.0819 789.193 85.5581 789.385 85.9417 789.385C86.2615 789.385 90.7376 789.193 92.8478 789.193C93.6151 789.193 93.9988 789.321 93.9988 789.768C93.9988 790.023 93.6791 790.151 93.4233 790.151C92.9117 790.151 92.5281 790.151 91.6328 790.342C89.7145 790.661 89.139 791.874 89.0111 794.236C88.8832 796.406 88.8832 798.385 88.8832 809.044V821.108H88.9471Z" fill="#2B2523"/>
<path d="M124.373 790.853C125.204 788.555 125.46 788.172 125.907 788.172C126.355 788.172 126.611 788.491 127.506 790.597C128.529 793.214 139.719 821.555 144.004 831.959C146.561 838.087 148.608 839.108 150.142 839.555C151.165 839.874 152.253 839.938 152.956 839.938C153.404 839.938 153.659 840.002 153.659 840.321C153.659 840.768 153.02 840.895 152.253 840.895C151.165 840.895 145.986 840.895 141.126 840.768C139.783 840.768 139.016 840.768 139.016 840.321C139.016 840.065 139.208 839.874 139.528 839.81C139.911 839.683 140.359 839.108 139.911 838.023L133.325 821.172C133.325 821.172 133.069 820.725 132.749 820.725H117.467C117.147 820.725 116.955 820.98 116.763 821.299L112.479 833.427C111.839 835.151 111.52 836.746 111.52 838.023C111.52 839.299 112.99 839.938 114.205 839.938H114.909C115.42 839.938 115.612 840.065 115.612 840.321C115.612 840.768 115.165 840.895 114.589 840.895C112.863 840.895 109.793 840.704 109.026 840.704C108.259 840.704 104.358 840.895 100.969 840.895C100.074 840.895 99.626 840.768 99.626 840.321C99.626 840.065 99.9457 839.938 100.265 839.938C100.777 839.938 101.736 839.874 102.312 839.81C105.573 839.427 106.98 836.81 108.259 833.363L124.373 790.789V790.853ZM131.726 818.236C132.046 818.236 132.046 818.044 131.982 817.789L125.268 799.214C124.884 798.193 124.564 798.193 124.181 799.214L117.914 817.789C117.786 818.108 117.914 818.236 118.17 818.236H131.726Z" fill="#2B2523"/>
<path d="M163.89 808.98C163.89 798.32 163.89 796.406 163.763 794.171C163.635 791.874 163.059 790.725 160.757 790.278C160.182 790.15 158.967 790.086 158.327 790.086C158.071 790.086 157.816 789.959 157.816 789.703C157.816 789.32 158.135 789.129 158.967 789.129C162.164 789.129 166.576 789.32 167.024 789.32C167.791 789.32 173.162 789.129 175.4 789.129C179.877 789.129 184.609 789.512 188.381 792.129C190.172 793.342 193.241 796.725 193.241 801.448C193.241 806.554 191.003 811.661 184.672 817.278C190.491 824.491 195.287 830.618 199.444 834.831C203.28 838.725 206.35 839.427 208.14 839.746C209.483 839.937 210.442 839.937 210.89 839.937C211.21 839.937 211.529 840.129 211.529 840.32C211.529 840.767 211.146 840.895 209.867 840.895H204.815C200.851 840.895 199.06 840.576 197.206 839.554C194.136 838.023 191.706 834.64 187.614 829.469C184.672 825.703 181.283 821.171 179.877 819.32C179.557 819.065 179.365 818.937 178.917 818.937L170.221 818.746C169.837 818.746 169.709 818.937 169.709 819.257V820.916C169.709 827.491 169.709 832.916 170.029 835.789C170.285 837.767 170.733 839.235 172.779 839.554C173.802 839.682 175.337 839.81 175.976 839.81C176.36 839.81 176.552 840.001 176.552 840.193C176.552 840.576 176.168 840.767 175.4 840.767C171.5 840.767 167.024 840.576 166.704 840.576C166.576 840.576 162.164 840.767 159.99 840.767C159.222 840.767 158.839 840.64 158.839 840.193C158.839 840.001 158.967 839.81 159.414 839.81C160.054 839.81 160.949 839.682 161.524 839.554C162.931 839.299 163.315 837.767 163.571 835.789C163.954 832.916 163.954 827.491 163.954 820.916V808.852L163.89 808.98ZM169.582 814.98C169.582 815.299 169.709 815.618 170.093 815.81C171.18 816.384 174.441 816.895 177.511 816.895C179.237 816.895 181.219 816.64 182.882 815.618C185.312 813.959 187.166 810.257 187.166 805.023C187.166 796.469 182.498 791.299 174.889 791.299C172.779 791.299 170.86 791.491 170.157 791.746C169.773 791.874 169.582 792.193 169.582 792.576V814.98Z" fill="#2B2523"/>
<path d="M223.295 825.448C223.295 836.555 223.295 840.831 221.185 845.682C219.714 849.129 216.581 852.32 210.826 856.15C209.867 856.789 208.716 857.491 208.012 857.874C207.884 857.937 207.757 858.001 207.501 858.001C207.309 858.001 206.989 857.874 206.989 857.618C206.989 857.171 207.373 856.98 208.012 856.597C208.844 856.086 209.867 855.32 210.506 854.618C215.11 850.086 217.284 846.512 217.284 828.831V808.98C217.284 798.32 217.284 796.406 217.156 794.171C217.093 791.874 216.453 790.725 214.151 790.278C213.576 790.15 212.361 790.086 211.721 790.086C211.465 790.086 211.146 789.959 211.146 789.703C211.146 789.32 211.465 789.129 212.297 789.129C215.494 789.129 219.97 789.32 220.354 789.32C220.737 789.32 225.15 789.129 227.324 789.129C228.155 789.129 228.475 789.257 228.475 789.703C228.475 789.959 228.219 790.086 227.899 790.086C227.452 790.086 227.004 790.086 226.173 790.278C224.254 790.597 223.679 791.81 223.551 794.171C223.423 796.342 223.423 798.32 223.423 808.98V825.448H223.295Z" fill="#2B2523"/>
<path d="M256.994 790.853C257.889 788.555 258.081 788.172 258.529 788.172C258.976 788.172 259.296 788.491 260.127 790.597C261.214 793.214 272.341 821.555 276.689 831.959C279.183 838.087 281.293 839.108 282.764 839.555C283.851 839.874 284.874 839.938 285.577 839.938C286.025 839.938 286.281 840.002 286.281 840.321C286.281 840.768 285.641 840.895 284.874 840.895C283.787 840.895 278.607 840.895 273.748 840.768C272.405 840.768 271.637 840.768 271.637 840.321C271.637 840.065 271.829 839.874 272.149 839.81C272.533 839.683 272.98 839.108 272.533 838.023L265.946 821.172C265.946 821.172 265.627 820.725 265.307 820.725H250.024C249.704 820.725 249.449 820.98 249.321 821.299L245.1 833.427C244.461 835.151 244.141 836.746 244.141 838.023C244.141 839.299 245.612 839.938 246.827 839.938H247.53C248.042 839.938 248.234 840.065 248.234 840.321C248.234 840.768 247.786 840.895 247.147 840.895C245.42 840.895 242.415 840.704 241.583 840.704C240.752 840.704 236.915 840.895 233.59 840.895C232.631 840.895 232.247 840.768 232.247 840.321C232.247 840.065 232.503 839.938 232.887 839.938C233.334 839.938 234.358 839.874 234.933 839.81C238.194 839.427 239.601 836.81 240.88 833.363L256.994 790.789V790.853ZM264.348 818.236C264.731 818.236 264.731 818.044 264.604 817.789L257.889 799.214C257.506 798.193 257.122 798.193 256.802 799.214L250.536 817.789C250.408 818.108 250.536 818.236 250.791 818.236H264.348Z" fill="#2B2523"/>
<path d="M339.291 821.108C339.291 827.683 339.291 833.108 339.675 835.981C339.867 837.959 340.314 839.427 342.424 839.747C343.447 839.874 344.982 840.002 345.622 840.002C346.005 840.002 346.197 840.193 346.197 840.385C346.197 840.768 345.813 840.959 345.046 840.959C341.145 840.959 336.669 840.768 336.35 840.768C335.966 840.768 331.554 840.959 329.38 840.959C328.548 840.959 328.229 840.832 328.229 840.385C328.229 840.193 328.357 840.002 328.804 840.002C329.444 840.002 330.275 839.874 330.914 839.747C332.321 839.491 332.705 837.959 332.961 835.981C333.344 833.108 333.344 827.683 333.344 821.108V813.896C333.344 813.896 333.152 813.449 332.897 813.449H302.843C302.843 813.449 302.395 813.513 302.395 813.896V821.108C302.395 827.683 302.395 833.108 302.715 835.981C302.97 837.959 303.354 839.427 305.464 839.747C306.423 839.874 308.022 840.002 308.598 840.002C309.045 840.002 309.173 840.193 309.173 840.385C309.173 840.768 308.789 840.959 308.022 840.959C304.121 840.959 299.645 840.768 299.262 840.768C298.942 840.768 294.466 840.959 292.292 840.959C291.524 840.959 291.141 840.832 291.141 840.385C291.141 840.193 291.332 840.002 291.716 840.002C292.292 840.002 293.187 839.874 293.826 839.747C295.233 839.491 295.617 837.959 295.873 835.981C296.256 833.108 296.256 827.683 296.256 821.108V809.044C296.256 798.385 296.256 796.47 296.064 794.236C295.937 791.938 295.361 790.789 293.059 790.342C292.483 790.215 291.269 790.151 290.629 790.151C290.309 790.151 290.054 790.023 290.054 789.768C290.054 789.385 290.373 789.193 291.205 789.193C294.402 789.193 298.878 789.385 299.198 789.385C299.581 789.385 304.057 789.193 306.232 789.193C306.935 789.193 307.319 789.321 307.319 789.768C307.319 790.023 307.063 790.151 306.743 790.151C306.232 790.151 305.848 790.151 304.953 790.342C303.034 790.661 302.459 791.874 302.331 794.236C302.203 796.406 302.203 798.385 302.203 809.044V810.513C302.203 810.832 302.459 810.895 302.651 810.895H332.705C332.705 810.895 333.152 810.896 333.152 810.513V809.044C333.152 798.385 333.152 796.47 333.024 794.236C332.897 791.938 332.321 790.789 330.019 790.342C329.444 790.215 328.229 790.151 327.589 790.151C327.333 790.151 327.014 790.023 327.014 789.768C327.014 789.385 327.397 789.193 328.165 789.193C331.362 789.193 335.838 789.385 336.222 789.385C336.605 789.385 341.018 789.193 343.192 789.193C343.959 789.193 344.279 789.321 344.279 789.768C344.279 790.023 344.023 790.151 343.767 790.151C343.256 790.151 342.808 790.151 341.977 790.342C340.058 790.661 339.547 791.874 339.355 794.236C339.227 796.406 339.227 798.385 339.227 809.044V821.108H339.291Z" fill="#2B2523"/>
<path d="M387.633 808.98C387.633 798.321 387.633 796.406 387.505 794.172C387.378 791.874 386.802 790.725 384.436 790.278C383.861 790.15 382.646 790.087 382.006 790.087C381.686 790.087 381.431 789.959 381.431 789.704C381.431 789.321 381.75 789.129 382.518 789.129C384.18 789.129 386.099 789.129 387.633 789.193L390.511 789.321C391.022 789.321 405.154 789.321 406.817 789.257C408.16 789.257 409.247 789.065 409.822 788.874C410.206 788.81 410.462 788.555 410.781 788.555C410.973 788.555 411.101 788.81 411.101 789.193C411.101 789.64 410.717 790.47 410.526 792.448C410.462 793.087 410.334 796.087 410.206 796.98C410.142 797.299 410.014 797.746 409.758 797.746C409.311 797.746 409.183 797.427 409.183 796.853C409.183 796.406 409.119 795.257 408.735 794.363C408.224 793.278 407.52 792.512 403.683 792.065C402.532 791.938 394.731 791.874 393.964 791.874C393.708 791.874 393.58 792.065 393.58 792.576V811.47C393.58 811.98 393.644 812.172 393.964 812.172C394.859 812.172 403.62 812.172 405.282 812.044C407.009 811.916 407.968 811.789 408.607 811.087C409.119 810.512 409.375 810.193 409.694 810.193C409.95 810.193 410.078 810.321 410.078 810.767C410.078 811.15 409.694 812.363 409.502 814.597C409.375 815.938 409.183 818.491 409.183 819.001C409.183 819.512 409.183 820.278 408.671 820.278C408.351 820.278 408.16 820.023 408.16 819.64C408.16 818.938 408.16 818.299 407.84 817.406C407.584 816.448 406.945 815.236 404.131 814.98C402.213 814.725 395.179 814.661 393.964 814.661C393.644 814.661 393.452 814.853 393.452 815.108V821.172C393.452 823.47 393.388 831.385 393.452 832.916C393.708 837.64 394.731 838.47 401.701 838.47C403.556 838.47 406.689 838.47 408.543 837.767C410.398 837.001 411.229 835.661 411.74 832.789C411.868 832.087 412.06 831.767 412.38 831.767C412.764 831.767 412.764 832.342 412.764 832.789C412.764 833.363 412.252 838.023 411.868 839.427C411.421 841.214 410.781 841.214 408.032 841.214C402.724 841.214 398.824 841.087 396.074 841.023C393.26 840.895 391.598 840.831 390.511 840.831C390.383 840.831 389.168 840.831 387.697 840.831C386.29 840.831 384.692 840.959 383.605 840.959C382.837 840.959 382.454 840.831 382.454 840.384C382.454 840.193 382.582 840.002 382.965 840.002C383.605 840.002 384.5 839.874 385.076 839.746C386.546 839.491 386.866 837.959 387.122 835.98C387.505 833.108 387.505 827.682 387.505 821.108V809.044L387.633 808.98Z" fill="#2B2523"/>
<path d="M461.681 839.555C459.124 840.895 454.328 841.917 450.555 841.917C430.86 841.917 422.867 827.3 422.867 814.98C422.867 803.874 431.18 788.172 450.747 788.172C466.733 788.172 478.691 798.002 478.691 813.895C478.691 825.959 470.825 833.938 466.157 836.938L480.737 844.151C496.212 851.874 507.018 852.257 510.599 852.257C514.18 852.257 519.679 851.491 524.603 849.576C525.051 849.448 525.37 849.321 525.626 849.321C525.882 849.321 526.074 849.576 526.074 849.768C526.074 850.023 525.946 850.214 525.498 850.47C521.47 852.257 513.477 855.193 502.99 855.193C494.421 855.193 485.277 852.129 473.767 846.002L461.809 839.619L461.681 839.555ZM452.281 839.3C458.676 839.3 471.849 835.725 471.849 815.81C471.849 799.342 461.489 790.534 450.299 790.534C438.469 790.534 429.581 798.065 429.581 813.065C429.581 829.023 439.493 839.3 452.281 839.3Z" fill="#2B2523"/>
<path d="M492.055 808.98C492.055 798.32 492.055 796.406 491.927 794.171C491.799 791.874 491.224 790.725 488.922 790.278C488.346 790.15 487.131 790.086 486.492 790.086C486.172 790.086 485.916 789.959 485.916 789.703C485.916 789.32 486.236 789.129 487.067 789.129C490.265 789.129 494.549 789.32 495.188 789.32C495.828 789.32 500.112 789.129 502.222 789.129C502.99 789.129 503.373 789.257 503.373 789.703C503.373 789.959 503.118 790.086 502.798 790.086C502.286 790.086 501.903 790.086 501.007 790.278C499.089 790.597 498.514 791.81 498.386 794.171C498.258 796.342 498.258 798.32 498.258 808.98V818.618C498.258 828.448 500.496 832.725 503.565 835.533C507.018 838.661 510.215 839.299 514.308 839.299C518.592 839.299 522.876 837.32 525.434 834.384C528.759 830.491 529.591 824.682 529.591 817.597V808.98C529.591 798.32 529.591 796.406 529.399 794.171C529.271 791.874 528.695 790.725 526.393 790.278C525.818 790.15 524.603 790.086 523.964 790.086C523.708 790.086 523.452 789.959 523.452 789.703C523.452 789.32 523.772 789.129 524.603 789.129C527.8 789.129 531.701 789.32 532.085 789.32C532.596 789.32 535.921 789.129 538.031 789.129C538.799 789.129 539.182 789.257 539.182 789.703C539.182 789.959 538.863 790.086 538.607 790.086C538.095 790.086 537.712 790.086 536.88 790.278C534.962 790.661 534.387 791.81 534.259 794.171C534.131 796.342 534.131 798.32 534.131 808.98V816.32C534.131 823.725 533.236 831.959 527.544 836.81C522.429 841.214 517.121 841.852 512.965 841.852C510.535 841.852 503.373 841.597 498.322 837.001C494.869 833.746 492.183 829.023 492.183 819.001V808.98H492.055Z" fill="#2B2523"/>
<path d="M555.105 808.98C555.105 798.321 555.105 796.406 554.977 794.172C554.849 791.874 554.21 790.725 551.908 790.278C551.332 790.15 550.117 790.087 549.478 790.087C549.222 790.087 548.902 789.959 548.902 789.704C548.902 789.321 549.286 789.129 550.053 789.129C551.652 789.129 553.634 789.129 555.233 789.193L558.11 789.321C558.558 789.321 572.754 789.321 574.352 789.257C575.695 789.257 576.782 789.065 577.422 788.874C577.741 788.81 578.061 788.555 578.381 788.555C578.636 788.555 578.636 788.81 578.636 789.193C578.636 789.64 578.253 790.47 578.061 792.448C578.061 793.087 577.869 796.087 577.677 796.98C577.613 797.299 577.422 797.746 577.166 797.746C576.718 797.746 576.59 797.427 576.59 796.853C576.59 796.406 576.526 795.257 576.143 794.363C575.695 793.278 574.992 792.512 571.155 792.065C569.94 791.938 562.203 791.874 561.371 791.874C561.116 791.874 560.988 792.065 560.988 792.576V811.47C560.988 811.98 560.988 812.172 561.371 812.172C562.331 812.172 571.091 812.172 572.69 812.044C574.352 811.916 575.375 811.789 576.015 811.087C576.526 810.512 576.782 810.193 577.102 810.193C577.358 810.193 577.422 810.321 577.422 810.767C577.422 811.15 577.102 812.363 576.846 814.597C576.718 815.938 576.59 818.491 576.59 819.001C576.59 819.512 576.59 820.278 576.079 820.278C575.695 820.278 575.567 820.023 575.567 819.64C575.567 818.938 575.567 818.299 575.311 817.406C574.992 816.448 574.416 815.236 571.603 814.98C569.684 814.725 562.714 814.661 561.435 814.661C561.052 814.661 560.988 814.853 560.988 815.108V821.172C560.988 823.47 560.924 831.385 560.988 832.916C561.243 837.64 562.203 838.47 569.173 838.47C571.027 838.47 574.16 838.47 576.015 837.767C577.869 837.001 578.7 835.661 579.212 832.789C579.34 832.087 579.532 831.767 579.851 831.767C580.299 831.767 580.299 832.342 580.299 832.789C580.299 833.363 579.787 838.023 579.404 839.427C578.892 841.214 578.317 841.214 575.567 841.214C570.196 841.214 566.359 841.087 563.609 841.023C560.86 840.895 559.133 840.831 558.046 840.831C557.918 840.831 556.703 840.831 555.233 840.831C553.826 840.831 552.227 840.959 551.076 840.959C550.245 840.959 549.989 840.831 549.989 840.384C549.989 840.193 550.117 840.002 550.501 840.002C551.14 840.002 551.971 839.874 552.675 839.746C554.082 839.491 554.465 837.959 554.721 835.98C555.041 833.108 555.041 827.682 555.041 821.108V809.044L555.105 808.98Z" fill="#2B2523"/>
<path d="M593.855 840.065C592.832 839.619 592.768 839.299 592.768 837.448C592.768 834.002 593.024 831.321 593.152 830.172C593.152 829.406 593.344 829.087 593.727 829.087C594.175 829.087 594.239 829.278 594.239 829.853C594.239 830.491 594.239 831.385 594.431 832.406C595.454 837.448 600.122 839.363 604.918 839.363C611.76 839.363 615.085 834.64 615.085 830.236C615.085 825.512 613.039 822.768 606.964 817.917L603.767 815.363C596.221 809.427 594.559 805.151 594.559 800.491C594.559 793.151 600.186 788.172 609.202 788.172C611.952 788.172 614.062 788.427 615.788 788.81C617.131 789.129 617.707 789.193 618.282 789.193C618.858 789.193 618.986 789.321 618.986 789.64C618.986 789.959 618.73 792.257 618.73 796.917C618.73 798.002 618.602 798.448 618.218 798.448C617.771 798.448 617.707 798.129 617.643 797.555C617.579 796.725 617.131 794.874 616.684 794.108C616.236 793.342 614.382 790.47 607.859 790.47C602.935 790.47 599.099 793.406 599.099 798.385C599.099 802.342 600.953 804.768 607.795 809.938L609.778 811.406C618.154 817.789 620.073 822.065 620.073 827.555C620.073 830.363 618.986 835.534 614.062 838.916C611.056 840.959 607.22 841.789 603.319 841.789C599.994 841.789 596.733 841.342 593.855 839.938V840.065Z" fill="#2B2523"/>
<path d="M653.899 821.108C653.899 827.682 653.899 833.108 654.283 835.98C654.475 837.959 654.922 839.427 657.033 839.746C658.12 839.874 659.654 840.002 660.294 840.002C660.678 840.002 660.805 840.193 660.805 840.385C660.805 840.768 660.486 840.959 659.718 840.959C655.818 840.959 651.342 840.768 650.958 840.768C650.574 840.768 646.162 840.959 643.988 840.959C643.221 840.959 642.837 840.831 642.837 840.385C642.837 840.193 642.965 840.002 643.412 840.002C644.052 840.002 644.883 839.874 645.523 839.746C646.993 839.491 647.313 837.959 647.633 835.98C647.952 833.108 647.952 827.682 647.952 821.108V792.129L637.466 792.257C633.053 792.321 631.327 792.831 630.24 794.427C629.472 795.576 629.281 796.023 628.961 796.534C628.769 797.108 628.577 797.236 628.321 797.236C628.066 797.236 627.938 797.044 627.938 796.597C627.938 795.959 629.345 790.023 629.536 789.512C629.664 789.129 629.92 788.172 630.24 788.172C630.751 788.172 631.455 788.81 633.373 788.938C635.355 789.193 638.105 789.321 638.936 789.321H665.537C667.839 789.321 669.502 789.193 670.589 788.938C671.676 788.81 672.315 788.619 672.635 788.619C672.955 788.619 672.955 789.065 672.955 789.448C672.955 791.427 672.763 796.214 672.763 796.98C672.763 797.555 672.571 797.874 672.251 797.874C671.868 797.874 671.74 797.682 671.676 796.725L671.548 795.959C671.356 793.917 669.63 792.321 662.788 792.193L653.835 792.065V821.044L653.899 821.108Z" fill="#2B2523"/>
<path d="M687.854 808.98C687.854 798.32 687.854 796.406 687.726 794.171C687.598 791.874 687.023 790.725 684.721 790.278C684.145 790.15 682.93 790.086 682.291 790.086C682.035 790.086 681.715 789.959 681.715 789.703C681.715 789.32 682.099 789.129 682.802 789.129C686 789.129 690.476 789.32 690.859 789.32C691.627 789.32 696.998 789.129 699.236 789.129C703.712 789.129 708.444 789.512 712.217 792.129C714.007 793.342 717.077 796.725 717.077 801.448C717.077 806.554 714.903 811.661 708.508 817.278C714.391 824.491 719.123 830.618 723.343 834.831C727.18 838.725 730.185 839.427 731.976 839.746C733.319 839.937 734.342 839.937 734.79 839.937C735.109 839.937 735.365 840.129 735.365 840.32C735.365 840.767 734.981 840.895 733.639 840.895H728.651C724.686 840.895 722.896 840.576 721.041 839.554C717.972 838.023 715.478 834.64 711.45 829.469C708.444 825.703 705.119 821.171 703.712 819.32C703.393 819.065 703.201 818.937 702.753 818.937L694.057 818.746C693.673 818.746 693.545 818.937 693.545 819.257V820.916C693.545 827.491 693.545 832.916 693.865 835.789C694.057 837.767 694.504 839.235 696.678 839.554C697.638 839.682 699.172 839.81 699.812 839.81C700.259 839.81 700.387 840.001 700.387 840.193C700.387 840.576 700.004 840.767 699.236 840.767C695.4 840.767 690.859 840.576 690.54 840.576C690.476 840.576 686 840.767 683.889 840.767C683.122 840.767 682.738 840.64 682.738 840.193C682.738 840.001 682.866 839.81 683.314 839.81C683.953 839.81 684.785 839.682 685.424 839.554C686.831 839.299 687.215 837.767 687.47 835.789C687.854 832.916 687.854 827.491 687.854 820.916V808.852V808.98ZM693.545 814.98C693.545 815.299 693.673 815.618 694.057 815.81C695.144 816.384 698.405 816.895 701.474 816.895C703.201 816.895 705.183 816.64 706.782 815.618C709.276 813.959 711.13 810.257 711.13 805.023C711.13 796.469 706.462 791.299 698.853 791.299C696.742 791.299 694.824 791.491 694.057 791.746C693.737 791.874 693.545 792.193 693.545 792.576V814.98Z" fill="#2B2523"/>
<path d="M747.323 821.108C747.323 827.683 747.323 833.108 747.642 835.981C747.898 837.959 748.282 839.427 750.392 839.747C751.351 839.874 753.014 840.002 753.589 840.002C754.037 840.002 754.165 840.193 754.165 840.385C754.165 840.768 753.781 840.959 753.014 840.959C749.113 840.959 744.637 840.768 744.317 840.768C743.934 840.768 739.457 840.959 737.347 840.959C736.516 840.959 736.196 840.832 736.196 840.385C736.196 840.193 736.324 840.002 736.708 840.002C737.347 840.002 738.179 839.874 738.882 839.747C740.289 839.491 740.672 837.959 740.928 835.981C741.248 833.108 741.248 827.683 741.248 821.108V809.044C741.248 798.385 741.248 796.47 741.12 794.236C740.992 791.938 740.289 790.725 738.754 790.406C737.987 790.151 737.028 790.151 736.516 790.151C736.26 790.151 735.94 790.023 735.94 789.768C735.94 789.385 736.26 789.193 737.091 789.193C739.457 789.193 743.934 789.385 744.317 789.385C744.637 789.385 749.113 789.193 751.223 789.193C751.991 789.193 752.374 789.321 752.374 789.768C752.374 790.023 752.055 790.151 751.735 790.151C751.287 790.151 750.84 790.151 750.008 790.342C748.09 790.661 747.514 791.874 747.387 794.236C747.259 796.406 747.259 798.385 747.259 809.044V821.108H747.323Z" fill="#2B2523"/>
<path d="M782.812 790.853C783.643 788.555 783.963 788.172 784.411 788.172C784.858 788.172 785.114 788.491 786.009 790.597C787.032 793.214 798.223 821.555 802.507 831.959C805.065 838.087 807.111 839.108 808.582 839.555C809.669 839.874 810.692 839.938 811.459 839.938C811.907 839.938 812.099 840.002 812.099 840.321C812.099 840.768 811.523 840.895 810.692 840.895C809.669 840.895 804.489 840.895 799.566 840.768C798.223 840.768 797.455 840.768 797.455 840.321C797.455 840.065 797.647 839.874 797.967 839.81C798.415 839.683 798.862 839.108 798.415 838.023L791.764 821.172C791.764 821.172 791.445 820.725 791.125 820.725H775.842C775.522 820.725 775.331 820.98 775.139 821.299L770.918 833.427C770.279 835.151 769.895 836.746 769.895 838.023C769.895 839.299 771.43 839.938 772.645 839.938H773.348C773.796 839.938 774.052 840.065 774.052 840.321C774.052 840.768 773.668 840.895 773.029 840.895C771.302 840.895 768.233 840.704 767.465 840.704C766.698 840.704 762.797 840.895 759.408 840.895C758.513 840.895 758.129 840.768 758.129 840.321C758.129 840.065 758.385 839.938 758.769 839.938C759.28 839.938 760.24 839.874 760.815 839.81C764.076 839.427 765.547 836.81 766.762 833.363L782.876 790.789L782.812 790.853ZM790.23 818.236C790.613 818.236 790.613 818.044 790.485 817.789L783.771 799.214C783.388 798.193 783.068 798.193 782.684 799.214L776.482 817.789C776.354 818.108 776.482 818.236 776.673 818.236H790.294H790.23Z" fill="#2B2523"/>
<path d="M824.184 831.576C824.312 837.193 825.016 838.98 826.934 839.555C828.341 839.874 829.875 839.938 830.515 839.938C830.899 839.938 831.026 840.065 831.026 840.321C831.026 840.768 830.643 840.895 829.748 840.895C825.719 840.895 822.842 840.704 822.202 840.704C821.563 840.704 818.557 840.895 815.36 840.895C814.657 840.895 814.209 840.895 814.209 840.321C814.209 840.065 814.465 839.938 814.784 839.938C815.36 839.938 816.575 839.874 817.662 839.555C819.452 839.108 819.836 837.065 819.836 830.81V791.555C819.9 788.874 820.156 788.172 820.667 788.172C821.243 788.172 822.458 789.704 823.161 790.342C824.248 791.491 834.799 802.534 845.734 813.895C852.768 821.172 860.505 829.534 862.807 831.768L862.04 796.917C862.04 792.512 861.464 790.98 859.29 790.406C858.011 790.087 856.349 790.087 855.837 790.087C855.325 790.087 855.262 789.895 855.262 789.64C855.262 789.193 855.837 789.129 856.668 789.129C859.866 789.129 863.255 789.321 864.022 789.321C864.789 789.321 867.155 789.129 870.033 789.129C870.8 789.129 871.312 789.193 871.312 789.64C871.312 789.895 871.056 790.087 870.544 790.087C870.161 790.087 869.713 790.087 868.818 790.278C866.516 790.725 866.196 792.321 866.196 796.406L866.068 836.555C866.068 841.087 865.94 841.406 865.429 841.406C864.917 841.406 864.022 840.64 860.249 837.002C859.482 836.3 849.251 826.278 841.705 818.427C833.456 809.874 825.463 801.257 823.161 798.768L824.056 831.576H824.184Z" fill="#2B2523"/>
<path d="M903.476 826.724C903.476 818.682 908.783 813.32 914.283 810.193C911.661 806.618 910.83 803.873 910.83 800.746C910.83 795.32 916.521 788.107 926.048 788.107C929.693 788.107 932.699 788.746 934.617 789.831C935.448 790.278 935.512 790.724 935.512 791.554C935.512 793.661 935.256 798.448 935.065 799.469C934.809 800.49 934.617 800.618 934.361 800.618C934.042 800.618 933.914 800.299 933.914 799.278C933.914 797.49 933.466 795.256 931.74 793.469C930.141 791.873 927.775 790.469 924.642 790.469C920.357 790.469 915.625 793.022 915.625 799.469C915.625 804.767 919.462 809.235 926.88 816.958C929.31 819.512 938.006 827.427 940.308 829.278C942.226 826.724 943.889 822.065 943.889 817.916C943.889 816.895 943.633 815.554 942.546 814.533C941.587 813.639 940.116 813.384 939.029 813.384C938.582 813.384 938.198 813.256 938.198 812.937C938.198 812.618 938.773 812.49 939.349 812.49C941.075 812.49 943.889 812.49 947.854 812.937C948.941 813.065 949.132 813.639 949.132 814.278C949.132 819.895 945.232 826.788 942.163 830.49C946.83 834.32 949.964 836.171 951.946 837.256C954.248 838.597 957.829 839.937 960.387 839.937C961.026 839.937 961.346 840.001 961.346 840.448C961.346 840.703 960.77 840.895 960.067 840.895H953.161C947.918 840.895 946.255 840.448 938.39 834.448C936.791 836.044 931.164 841.852 920.677 841.852C908.272 841.852 903.476 832.661 903.476 826.724ZM936.599 833.235C932.635 830.044 925.601 823.533 923.81 821.618C921.956 819.639 917.416 814.788 915.434 811.98C911.725 814.278 909.039 818.044 909.039 823.533C909.039 832.15 915.306 838.214 923.299 838.214C929.885 838.214 934.297 835.533 936.663 833.171L936.599 833.235Z" fill="#2B2523"/>
<path d="M990.633 808.98C990.633 798.32 990.633 796.406 990.505 794.171C990.313 791.874 989.801 790.725 987.435 790.278C986.86 790.15 985.645 790.086 985.005 790.086C984.75 790.086 984.43 789.959 984.43 789.703C984.43 789.32 984.75 789.129 985.581 789.129C988.778 789.129 993.254 789.32 993.638 789.32C994.405 789.32 999.841 789.129 1002.01 789.129C1006.43 789.129 1011.29 789.512 1015 792.129C1016.72 793.342 1019.92 796.725 1019.92 801.448C1019.92 806.554 1017.68 811.661 1011.29 817.278C1017.11 824.491 1021.9 830.618 1026.06 834.831C1029.89 838.725 1032.96 839.427 1034.69 839.746C1036.03 839.937 1037.06 839.937 1037.5 839.937C1037.82 839.937 1038.08 840.129 1038.08 840.32C1038.08 840.767 1037.7 840.895 1036.42 840.895H1031.37C1027.34 840.895 1025.61 840.576 1023.76 839.554C1020.75 838.023 1018.26 834.64 1014.16 829.469C1011.22 825.703 1007.9 821.171 1006.43 819.32C1006.17 819.065 1005.98 818.937 1005.53 818.937L996.835 818.746C996.452 818.746 996.324 818.937 996.324 819.257V820.916C996.324 827.491 996.324 832.916 996.643 835.789C996.899 837.767 997.283 839.235 999.393 839.554C1000.35 839.682 1001.95 839.81 1002.59 839.81C1003.04 839.81 1003.23 840.001 1003.23 840.193C1003.23 840.576 1002.85 840.767 1002.08 840.767C998.178 840.767 993.638 840.576 993.382 840.576C993.254 840.576 988.842 840.767 986.668 840.767C985.901 840.767 985.517 840.64 985.517 840.193C985.517 840.001 985.645 839.81 986.093 839.81C986.732 839.81 987.563 839.682 988.203 839.554C989.609 839.299 989.993 837.767 990.313 835.789C990.633 832.916 990.633 827.491 990.633 820.916V808.852V808.98ZM996.324 814.98C996.324 815.299 996.452 815.618 996.835 815.81C997.858 816.384 1001.18 816.895 1004.32 816.895C1006.04 816.895 1007.96 816.64 1009.62 815.618C1012.12 813.959 1013.91 810.257 1013.91 805.023C1013.91 796.469 1009.24 791.299 1001.7 791.299C999.585 791.299 997.603 791.491 996.899 791.746C996.516 791.874 996.324 792.193 996.324 792.576V814.98Z" fill="#2B2523"/>
<path d="M1054.71 790.853C1055.54 788.555 1055.86 788.172 1056.3 788.172C1056.69 788.172 1057.01 788.491 1057.84 790.597C1058.86 793.214 1070.05 821.555 1074.34 831.959C1076.89 838.087 1079 839.108 1080.41 839.555C1081.5 839.874 1082.59 839.938 1083.22 839.938C1083.67 839.938 1083.93 840.002 1083.93 840.321C1083.93 840.768 1083.29 840.895 1082.52 840.895C1081.43 840.895 1076.25 840.895 1071.33 840.768C1069.99 840.768 1069.22 840.768 1069.22 840.321C1069.22 840.065 1069.48 839.874 1069.73 839.81C1070.12 839.683 1070.56 839.108 1070.12 838.023L1063.53 821.172C1063.53 821.172 1063.21 820.725 1062.83 820.725H1047.61C1047.22 820.725 1047.03 820.98 1046.9 821.299L1042.62 833.427C1041.98 835.151 1041.66 836.746 1041.66 838.023C1041.66 839.299 1043.2 839.938 1044.35 839.938H1045.11C1045.56 839.938 1045.82 840.065 1045.82 840.321C1045.82 840.768 1045.43 840.895 1044.73 840.895C1043 840.895 1040 840.704 1039.17 840.704C1038.34 840.704 1034.5 840.895 1031.17 840.895C1030.21 840.895 1029.83 840.768 1029.83 840.321C1029.83 840.065 1030.15 839.938 1030.47 839.938C1030.98 839.938 1031.94 839.874 1032.52 839.81C1035.78 839.427 1037.18 836.81 1038.53 833.363L1054.64 790.789L1054.71 790.853ZM1062.06 818.236C1062.44 818.236 1062.44 818.044 1062.38 817.789L1055.66 799.214C1055.28 798.193 1054.96 798.193 1054.58 799.214L1048.31 817.789C1048.25 818.108 1048.31 818.236 1048.57 818.236H1062.12H1062.06Z" fill="#2B2523"/>
<path d="M1094.67 834.512C1087.76 828.576 1086.1 820.725 1086.1 814.214C1086.1 809.619 1087.7 801.576 1094.03 795.512C1098.32 791.363 1104.77 788.172 1115.64 788.172C1118.52 788.172 1122.49 788.363 1125.94 788.938C1128.63 789.448 1130.93 789.831 1133.17 790.023C1133.93 790.023 1134.12 790.342 1134.12 790.725C1134.12 791.236 1133.93 792.129 1133.74 794.555C1133.61 796.853 1133.61 800.619 1133.55 801.64C1133.55 802.661 1133.29 803.044 1132.91 803.044C1132.4 803.044 1132.33 802.597 1132.33 801.64C1132.33 798.959 1131.18 796.151 1129.39 794.619C1126.9 792.576 1121.46 790.725 1115.2 790.725C1105.73 790.725 1101.32 793.406 1098.89 795.768C1093.71 800.555 1092.5 806.683 1092.5 813.64C1092.5 826.725 1102.92 838.725 1118.07 838.725C1123.38 838.725 1127.6 838.087 1130.48 835.278C1131.95 833.81 1132.85 830.81 1133.1 829.534C1133.23 828.768 1133.36 828.512 1133.81 828.512C1134.19 828.512 1134.32 829.023 1134.32 829.534C1134.32 830.044 1133.49 835.98 1132.72 838.342C1132.27 839.619 1132.21 839.81 1130.86 840.321C1128.05 841.406 1122.61 841.916 1118.07 841.916C1107.46 841.916 1100.3 839.363 1094.67 834.512Z" fill="#2B2523"/>
<path d="M1157.27 821.108C1157.27 827.683 1157.27 833.108 1157.59 835.981C1157.85 837.959 1158.23 839.427 1160.41 839.747C1161.37 839.874 1162.96 840.002 1163.6 840.002C1163.99 840.002 1164.18 840.193 1164.18 840.385C1164.18 840.768 1163.86 840.959 1163.03 840.959C1159.13 840.959 1154.65 840.768 1154.27 840.768C1153.95 840.768 1149.47 840.959 1147.3 840.959C1146.53 840.959 1146.21 840.832 1146.21 840.385C1146.21 840.193 1146.34 840.002 1146.79 840.002C1147.43 840.002 1148.26 839.874 1148.9 839.747C1150.3 839.491 1150.69 837.959 1151.01 835.981C1151.33 833.108 1151.33 827.683 1151.33 821.108V809.044C1151.33 798.385 1151.33 796.47 1151.2 794.236C1151.07 791.938 1150.37 790.725 1148.77 790.406C1148 790.151 1147.11 790.151 1146.59 790.151C1146.34 790.151 1146.02 790.023 1146.02 789.768C1146.02 789.385 1146.4 789.193 1147.17 789.193C1149.54 789.193 1154.01 789.385 1154.33 789.385C1154.71 789.385 1159.13 789.193 1161.3 789.193C1162.07 789.193 1162.45 789.321 1162.45 789.768C1162.45 790.023 1162.13 790.151 1161.88 790.151C1161.37 790.151 1160.98 790.151 1160.09 790.342C1158.17 790.661 1157.59 791.874 1157.46 794.236C1157.34 796.406 1157.34 798.385 1157.34 809.044V821.108H1157.27Z" fill="#2B2523"/>
<path d="M1184.45 831.576C1184.58 837.193 1185.28 838.98 1187.2 839.555C1188.54 839.874 1190.14 839.938 1190.78 839.938C1191.16 839.938 1191.36 840.065 1191.36 840.321C1191.36 840.768 1190.91 840.895 1190.08 840.895C1186.05 840.895 1183.23 840.704 1182.59 840.704C1181.96 840.704 1179.01 840.895 1175.75 840.895C1175.05 840.895 1174.67 840.895 1174.67 840.321C1174.67 840.065 1174.79 839.938 1175.18 839.938C1175.75 839.938 1177.03 839.874 1178.12 839.555C1179.91 839.108 1180.23 837.065 1180.23 830.81L1180.36 791.555C1180.36 788.874 1180.55 788.172 1181.12 788.172C1181.7 788.172 1182.91 789.704 1183.62 790.342C1184.64 791.491 1195.26 802.534 1206.19 813.895C1213.22 821.172 1220.96 829.534 1223.2 831.768L1222.43 796.917C1222.37 792.512 1221.86 790.98 1219.62 790.406C1218.4 790.087 1216.74 790.087 1216.17 790.087C1215.65 790.087 1215.53 789.895 1215.53 789.64C1215.53 789.193 1216.17 789.129 1217 789.129C1220.19 789.129 1223.58 789.321 1224.41 789.321C1225.25 789.321 1227.55 789.129 1230.43 789.129C1231.26 789.129 1231.7 789.193 1231.7 789.64C1231.7 789.895 1231.45 790.087 1230.94 790.087C1230.62 790.087 1230.11 790.087 1229.27 790.278C1226.91 790.725 1226.65 792.321 1226.65 796.406L1226.46 836.555C1226.46 841.087 1226.33 841.406 1225.82 841.406C1225.31 841.406 1224.41 840.64 1220.71 837.002C1219.87 836.3 1209.71 826.278 1202.23 818.427C1193.98 809.874 1185.92 801.257 1183.68 798.768L1184.58 831.576H1184.45Z" fill="#2B2523"/>
<path d="M1282.35 823.468C1282.35 817.915 1282.03 817.149 1279.22 816.383C1278.64 816.256 1277.42 816.192 1276.79 816.192C1276.47 816.192 1276.21 816.064 1276.21 815.809C1276.21 815.362 1276.53 815.234 1277.36 815.234C1280.56 815.234 1285.03 815.49 1285.35 815.49C1285.74 815.49 1290.21 815.234 1292.32 815.234C1293.09 815.234 1293.48 815.362 1293.48 815.809C1293.48 816.064 1293.16 816.192 1292.9 816.192C1292.39 816.192 1292 816.256 1291.17 816.383C1289.25 816.766 1288.68 817.915 1288.55 820.341C1288.42 822.575 1288.42 824.617 1288.42 827.49V835.149C1288.42 838.213 1288.42 838.341 1287.53 838.851C1282.99 841.213 1276.59 841.915 1272.5 841.915C1267.13 841.915 1257.03 841.213 1249.1 834.639C1244.81 830.936 1240.66 823.596 1240.66 815.107C1240.66 804.128 1246.22 796.405 1252.49 792.575C1258.88 788.681 1265.91 788.234 1271.35 788.234C1275.83 788.234 1280.88 789.128 1282.28 789.383C1283.76 789.702 1286.25 790.022 1287.98 790.085C1288.68 790.085 1288.81 790.405 1288.81 790.66C1288.81 791.617 1288.36 793.532 1288.36 800.362C1288.36 801.447 1288.23 801.83 1287.66 801.83C1287.34 801.83 1287.21 801.447 1287.14 800.809C1287.08 799.788 1286.7 797.873 1285.67 796.277C1283.88 793.724 1278.13 790.724 1268.98 790.724C1264.51 790.724 1259.2 791.171 1253.77 795.256C1249.61 798.383 1246.8 804.639 1246.8 812.681C1246.8 822.319 1251.85 829.341 1254.34 831.639C1259.9 836.936 1266.36 838.979 1272.95 838.979C1275.51 838.979 1279.22 838.532 1281.07 837.511C1281.97 837 1282.41 836.298 1282.41 835.085V823.468H1282.35Z" fill="#2B2523"/>
<path d="M1333.38 834.512C1326.53 828.576 1324.81 820.725 1324.81 814.214C1324.81 809.619 1326.47 801.576 1332.8 795.512C1337.02 791.363 1343.48 788.172 1354.41 788.172C1357.29 788.172 1361.26 788.363 1364.71 788.938C1367.4 789.448 1369.7 789.831 1371.94 790.023C1372.7 790.023 1372.83 790.342 1372.83 790.725C1372.83 791.236 1372.64 792.129 1372.51 794.555C1372.38 796.853 1372.38 800.619 1372.26 801.64C1372.26 802.661 1372.06 803.044 1371.62 803.044C1371.1 803.044 1371.04 802.597 1371.04 801.64C1371.04 798.959 1369.95 796.151 1368.1 794.619C1365.6 792.576 1360.11 790.725 1353.84 790.725C1344.44 790.725 1340.03 793.406 1337.53 795.768C1332.35 800.555 1331.2 806.683 1331.2 813.64C1331.2 826.725 1341.63 838.725 1356.84 838.725C1362.15 838.725 1366.37 838.087 1369.19 835.278C1370.66 833.81 1371.62 830.81 1371.81 829.534C1371.94 828.768 1372.13 828.512 1372.51 828.512C1372.83 828.512 1373.02 829.023 1373.02 829.534C1373.02 830.044 1372.19 835.98 1371.49 838.342C1371.1 839.619 1370.91 839.81 1369.63 840.321C1366.88 841.406 1361.45 841.916 1356.91 841.916C1346.29 841.916 1339.07 839.363 1333.44 834.512H1333.38Z" fill="#2B2523"/>
<path d="M1395.98 821.235C1395.98 831.32 1396.23 835.66 1397.51 836.937C1398.66 838.022 1400.52 838.532 1406.08 838.532C1409.85 838.532 1412.99 838.405 1414.65 836.49C1415.55 835.341 1416.25 833.681 1416.57 832.405C1416.57 831.894 1416.76 831.511 1417.14 831.511C1417.46 831.511 1417.53 831.83 1417.53 832.532C1417.53 833.362 1417.08 837.447 1416.5 839.426C1415.93 841.022 1415.74 841.277 1411.96 841.277C1406.85 841.277 1403.14 841.149 1400.2 841.086C1397.19 840.958 1395.02 840.894 1392.97 840.894C1392.65 840.894 1391.5 840.894 1390.03 840.894C1388.62 841.022 1387.03 841.022 1385.94 841.022C1385.17 841.022 1384.85 840.894 1384.85 840.447C1384.85 840.256 1384.98 840.064 1385.43 840.064C1386.07 840.064 1386.9 839.937 1387.6 839.809C1389.01 839.554 1389.39 838.022 1389.65 836.043C1390.03 833.171 1390.03 827.745 1390.03 821.171V809.107C1390.03 798.447 1390.03 796.532 1389.84 794.298C1389.78 792.001 1389.14 790.852 1386.83 790.405C1386.26 790.277 1385.04 790.213 1384.4 790.213C1384.15 790.213 1383.83 790.086 1383.83 789.83C1383.83 789.447 1384.21 789.256 1384.98 789.256C1388.18 789.256 1392.65 789.447 1392.97 789.447C1393.29 789.447 1398.54 789.256 1400.65 789.256C1401.41 789.256 1401.8 789.383 1401.8 789.83C1401.8 790.086 1401.54 790.213 1401.29 790.213C1400.71 790.213 1399.75 790.213 1398.92 790.405C1396.87 790.724 1396.3 791.937 1396.17 794.298C1396.04 796.469 1396.04 798.447 1396.04 809.107V821.362L1395.98 821.235Z" fill="#2B2523"/>
<path d="M1427.44 808.98C1427.44 798.32 1427.44 796.406 1427.31 794.171C1427.18 791.874 1426.61 790.725 1424.24 790.278C1423.67 790.15 1422.52 790.086 1421.81 790.086C1421.56 790.086 1421.3 789.959 1421.3 789.703C1421.3 789.32 1421.68 789.129 1422.39 789.129C1425.59 789.129 1429.93 789.32 1430.51 789.32C1431.21 789.32 1435.43 789.129 1437.61 789.129C1438.31 789.129 1438.63 789.257 1438.63 789.703C1438.63 789.959 1438.37 790.086 1438.12 790.086C1437.61 790.086 1437.16 790.086 1436.33 790.278C1434.41 790.597 1433.9 791.81 1433.71 794.171C1433.58 796.342 1433.58 798.32 1433.58 808.98V818.618C1433.58 828.448 1435.82 832.725 1438.89 835.533C1442.4 838.661 1445.54 839.299 1449.63 839.299C1453.98 839.299 1458.2 837.32 1460.75 834.384C1464.02 830.491 1464.91 824.682 1464.91 817.597V808.98C1464.91 798.32 1464.91 796.406 1464.78 794.171C1464.66 791.874 1464.08 790.725 1461.71 790.278C1461.2 790.15 1459.99 790.086 1459.35 790.086C1459.09 790.086 1458.84 789.959 1458.84 789.703C1458.84 789.32 1459.16 789.129 1459.92 789.129C1463.12 789.129 1467.02 789.32 1467.47 789.32C1467.98 789.32 1471.31 789.129 1473.48 789.129C1474.25 789.129 1474.57 789.257 1474.57 789.703C1474.57 789.959 1474.31 790.086 1473.99 790.086C1473.48 790.086 1473.03 790.086 1472.2 790.278C1470.28 790.661 1469.64 791.81 1469.58 794.171C1469.39 796.342 1469.39 798.32 1469.39 808.98V816.32C1469.39 823.725 1468.56 831.959 1462.86 836.81C1457.75 841.214 1452.44 841.852 1448.29 841.852C1445.86 841.852 1438.69 841.597 1433.64 837.001C1430.13 833.746 1427.44 829.023 1427.44 819.001V808.98Z" fill="#2B2523"/>
<path d="M1490.49 808.98C1490.49 798.32 1490.49 796.406 1490.36 794.171C1490.23 791.874 1489.66 790.725 1487.29 790.278C1486.72 790.15 1485.57 790.086 1484.93 790.086C1484.67 790.086 1484.35 789.959 1484.35 789.703C1484.35 789.32 1484.67 789.129 1485.5 789.129C1488.7 789.129 1493.11 789.32 1493.49 789.32C1495.28 789.32 1497.97 789.129 1501.23 789.129C1512.87 789.129 1515.43 795.959 1515.43 799.406C1515.43 805.023 1512.04 808.406 1508.78 811.725C1514.02 813.32 1521.05 818.171 1521.05 826.278C1521.05 833.554 1515.04 841.15 1502.96 841.15C1502.19 841.15 1499.89 841.023 1497.84 840.959C1495.73 840.831 1493.81 840.767 1493.49 840.767C1493.37 840.767 1492.15 840.767 1490.68 840.767C1489.21 840.767 1487.55 840.895 1486.52 840.895C1485.82 840.895 1485.44 840.767 1485.44 840.32C1485.44 840.129 1485.57 839.937 1486.01 839.937C1486.65 839.937 1487.55 839.81 1488.12 839.682C1489.59 839.427 1489.91 837.895 1490.23 835.916C1490.55 833.044 1490.55 827.618 1490.55 821.044V808.98H1490.49ZM1496.12 810.448C1496.12 810.959 1496.24 811.086 1496.63 811.214C1497.01 811.278 1498.29 811.469 1500.91 811.469C1504.88 811.469 1505.9 811.342 1507.37 809.682C1508.84 808.023 1509.99 805.597 1509.99 802.788C1509.99 797.108 1507.31 791.044 1500.4 791.044C1499.57 791.044 1498.1 791.108 1496.95 791.363C1496.31 791.491 1496.05 791.682 1496.05 792.129V810.448H1496.12ZM1496.12 817.788C1496.12 823.023 1496.12 831.576 1496.18 832.597C1496.37 835.916 1496.37 836.937 1498.61 837.959C1500.53 838.788 1503.6 838.98 1504.88 838.98C1508.71 838.98 1514.85 837.001 1514.85 829.278C1514.85 825.129 1513.45 819.193 1507.95 815.554C1505.58 813.959 1503.79 813.767 1502.06 813.512C1501.17 813.384 1497.59 813.384 1496.5 813.384C1496.18 813.384 1496.05 813.512 1496.05 813.895V817.852L1496.12 817.788Z" fill="#2B2523"/>
<path d="M106.212 719.298H33.3152C23.5956 719.298 16.4338 717.575 11.8297 714.064C6.39442 710.234 3.70874 703.724 3.70874 694.724C3.70874 686.298 6.71415 676.724 12.8528 665.809C14.4515 666.383 17.2011 668.426 20.9099 671.745C16.8814 678.575 14.8351 684.766 14.8351 690.383C14.8351 694.468 16.3698 697.724 19.631 700.213C22.7643 702.639 26.537 703.851 30.8213 703.851H58.3815C56.8469 697.915 56.1435 694.149 56.1435 692.745C56.1435 685.915 57.9339 679.851 61.6427 674.681C65.6712 668.745 71.1065 665.809 77.9486 665.809C86.773 665.809 93.8709 669.894 99.3062 678.128C103.91 685.277 106.212 693.383 106.212 702.511V719.298ZM95.7253 646.085C94.1906 647.745 91.5689 650.426 87.7322 654.128L79.6112 646.468L71.5542 654.447L63.625 646.468C64.5842 645.319 67.2699 642.639 71.746 638.426L79.4833 645.83L87.6043 638.426L95.7253 646.022V646.085ZM91.8247 696.958C91.8247 693.128 90.8015 689.362 88.8193 685.788C86.3894 681.511 83.32 679.405 79.7391 679.405C77.0534 679.405 74.4956 680.681 72.2576 683.234C69.9555 685.851 68.8045 688.341 68.8045 690.958C68.8045 699.064 74.1759 703.085 84.9826 703.085C87.6043 703.085 89.3948 702.702 90.3539 701.936C91.377 701.17 91.8247 699.511 91.8247 696.894V696.958Z" fill="#2B2523"/>
<path d="M141.638 719.298H118.937L116.316 625.852H129.168L131.598 703.852H141.638V719.298Z" fill="#2B2523"/>
<path d="M186.911 719.297H135.947V703.851H167.727C168.367 703.212 168.75 702.574 168.75 701.936C168.75 699.191 167.535 695.489 164.977 690.638C162.484 685.787 161.141 682.34 161.013 680.17C163.123 677.872 166.448 674.489 170.924 670.148L171.756 670.531C176.296 683.744 178.853 694.851 179.237 703.914H186.911V719.361V719.297ZM177.958 736.659C175.081 739.531 172.331 742.085 169.581 744.51C169.198 744.127 166.448 741.638 161.652 737.234C162.612 736.021 165.233 733.34 169.581 729C171.372 730.404 174.186 732.957 177.958 736.659Z" fill="#2B2523"/>
<path d="M209.227 719.298H182.051V703.852H209.227V719.298Z" fill="#2B2523"/>
<path d="M282.7 719.298H208.14V703.851L208.332 703.021L200.275 687.192C201.938 684.83 204.751 681.575 208.46 677.298L221.633 703.787H234.294L234.677 702.83C233.207 699.319 230.905 694.085 227.771 687.192L236.084 677.17C238.45 679.66 240.624 683.872 242.798 689.872C244.269 694.532 245.804 699.192 247.402 703.787H261.598L261.79 702.766C261.79 699.766 258.784 692.106 252.646 679.787C254.948 677.681 258.337 674.553 262.813 670.404C265.499 677.617 269.144 688.851 273.748 704.234L282.636 703.851V719.298H282.7Z" fill="#2B2523"/>
<path d="M311.539 719.297H276.561V703.851H298.111C298.111 703.851 297.407 677.744 296 625.148H309.045L311.475 719.297H311.539Z" fill="#2B2523"/>
<path d="M335.838 719.298H323.177L320.555 624.83H333.408L335.838 719.298Z" fill="#2B2523"/>
<path d="M388.912 712.278C389.04 722.235 386.418 730.725 380.983 737.618C374.972 745.405 366.979 749.044 357.004 748.342H354.766C352.975 746.363 350.545 743.299 347.412 739.15C353.615 738.384 359.306 736.661 364.421 734.044C371.008 730.533 374.397 726.384 374.397 721.597C374.397 720.831 374.269 720.001 374.013 719.235H363.654C351.249 719.235 345.046 714.959 345.046 706.469C345.046 698.873 346.836 691.852 350.353 685.533C354.51 677.81 360.201 673.916 367.427 673.916C381.495 673.916 388.656 685.98 388.976 710.044V712.214L388.912 712.278ZM374.461 704.554V700.661C374.461 698.618 373.374 696.001 371.391 692.81C369.345 689.618 367.299 688.022 365.189 688.022C363.078 688.022 361.032 689.81 359.306 693.256C357.707 696.256 356.94 699.001 356.94 701.427C356.94 702.065 357.004 702.639 357.196 703.15C358.73 704.108 360.393 704.554 362.119 704.554H374.525H374.461Z" fill="#2B2523"/>
<path d="M498.258 703.852V719.299H429.773V702.703C429.773 696.958 433.034 690.001 439.62 681.894C446.143 673.788 452.345 669.767 458.164 669.767C463.024 669.767 467.244 672.384 470.761 677.682C473.767 682.916 476.708 688.15 479.65 693.32C483.742 699.384 488.73 702.894 494.677 703.916H498.322L498.258 703.852ZM470.698 649.405C468.971 651.128 466.157 653.682 462.385 657.065C460.786 655.788 458.228 653.426 454.711 650.043C451.578 653.171 449.02 655.533 446.974 657.065C445.311 655.66 442.562 653.107 438.661 649.405L446.59 641.682C448.189 643.022 450.875 645.511 454.711 649.214L462.385 641.682C463.6 642.448 466.349 645.001 470.698 649.405ZM468.268 702.894C463.28 691.086 459.123 685.15 455.862 685.15C453.305 685.15 450.555 687.511 447.741 692.171C444.928 696.831 443.521 700.469 443.521 703.086H456.31C456.758 703.086 457.333 703.214 458.1 703.469C458.932 703.724 459.571 703.852 459.955 703.852H467.82L468.268 702.894Z" fill="#2B2523"/>
<path d="M544.746 703.852V719.299H493.782V703.852H525.178C526.138 703.724 526.585 703.15 526.585 702.128C526.585 700.341 524.028 693.001 518.912 680.107L529.143 670.086C529.591 671.235 532.468 682.469 537.84 703.852H544.682H544.746ZM537.648 735.894C534.834 738.767 532.021 741.384 529.335 743.745C528.887 743.299 526.33 740.809 521.598 736.15C518.528 739.597 515.97 742.086 513.924 743.745C512.198 742.277 509.512 739.916 505.995 736.533C506.954 735.384 509.576 732.639 513.924 728.299L521.598 735.767L529.335 728.299C530.934 729.767 533.747 732.32 537.648 735.894Z" fill="#2B2523"/>
<path d="M567.382 719.298H540.206V703.852H567.382V719.298Z" fill="#2B2523"/>
<path d="M630.496 719.298H566.103V703.851L566.807 703.277L558.302 688.724C559.9 686.107 562.842 682.851 566.998 679.021L579.596 704.107H591.745L592.384 702.958L585.926 688.021C589.571 683.617 592.384 680.362 594.239 678.255C599.802 687 603.255 695.617 604.598 704.107H618.986L619.625 703.341L610.737 681.192C612.719 679.021 615.916 675.766 620.264 671.617C621.607 673.851 623.653 679.021 626.467 687.319C629.217 695.553 630.623 700.532 630.623 702.383V719.426L630.496 719.298Z" fill="#2B2523"/>
<path d="M681.971 712.278C682.099 722.235 679.413 730.725 674.042 737.618C668.095 745.405 660.102 749.044 650.063 748.342H647.825C646.098 746.363 643.604 743.299 640.535 739.15C646.738 738.384 652.429 736.661 657.544 734.044C664.131 730.533 667.456 726.384 667.456 721.597C667.456 720.831 667.264 720.001 667.072 719.235H656.713C644.244 719.235 638.105 714.959 638.105 706.469C638.105 698.873 639.831 691.852 643.348 685.533C647.569 677.81 653.26 673.916 660.422 673.916C674.49 673.916 681.715 685.98 681.971 710.044V712.214V712.278ZM667.456 704.554V700.661C667.456 698.618 666.433 696.001 664.386 692.81C662.34 689.618 660.358 688.022 658.248 688.022C656.01 688.022 654.091 689.81 652.365 693.256C650.83 696.256 650.063 699.001 650.063 701.427C650.063 702.065 650.063 702.639 650.255 703.15C651.789 704.108 653.452 704.554 655.178 704.554H667.52H667.456Z" fill="#2B2523"/>
<path d="M730.377 719.298H728.907C728.907 719.298 727.947 719.361 726.477 719.489C723.088 729.957 719.187 737.361 714.711 741.83C709.02 747.638 700.899 750.574 690.348 750.574C689.453 748.468 687.982 745.34 686.064 741.191C692.522 740.808 698.469 738.255 703.904 733.659C709.34 729.064 712.089 723.702 712.089 717.702C712.089 712.851 711.322 708.638 709.723 705C708.125 701.361 706.398 697.659 704.544 693.893L712.473 680.17C715.031 682.915 717.652 686.808 720.21 691.787L726.477 704.298H730.377V719.361V719.298Z" fill="#2B2523"/>
<path d="M804.297 719.297H726.477V703.851H746.747C745.852 698.042 745.468 694.978 745.468 694.723C745.468 688.276 747.259 682.276 750.903 676.659C754.996 670.34 760.175 667.148 766.57 667.148C776.545 667.148 784.027 671.042 788.887 678.765C792.915 685.276 794.834 693.574 794.578 703.787H804.297V719.234V719.297ZM772.645 646.085C771.686 647.234 769.064 650.042 764.716 654.319L756.403 646.34L764.332 638.553C766.058 639.957 768.872 642.51 772.645 646.148V646.085ZM780.766 698.361C780.766 694.787 779.743 691.34 777.76 687.893C775.33 683.936 772.325 681.957 768.808 681.957C766.058 681.957 763.756 683.17 761.774 685.659C759.792 688.085 758.833 690.702 758.833 693.446C758.833 696.638 760.303 699.446 763.373 702C766.314 704.489 769.447 705.702 772.709 705.702C778.144 705.702 780.83 703.276 780.83 698.425L780.766 698.361Z" fill="#2B2523"/>
<path d="M846.117 719.298H799.63V703.852H824.184C824.184 703.852 823.545 677.937 822.266 625.852H835.119L837.485 703.852H846.053V719.298H846.117Z" fill="#2B2523"/>
<path d="M876.107 719.297H841.13V703.851H862.679C862.679 703.851 861.976 677.744 860.505 625.148H873.55L875.98 719.297H876.107Z" fill="#2B2523"/>
<path d="M984.046 703.852V719.299H915.497V702.703C915.497 696.958 918.759 690.001 925.345 681.894C931.867 673.788 938.006 669.767 943.889 669.767C948.749 669.767 952.969 672.384 956.486 677.682C959.428 682.916 962.433 688.15 965.438 693.32C969.467 699.384 974.519 702.894 980.401 703.916H984.046V703.852ZM956.486 649.405C954.76 651.128 952.01 653.682 948.173 657.065C946.575 655.788 944.017 653.426 940.5 650.043C937.367 653.171 934.809 655.533 932.763 657.065C931.164 655.66 928.35 653.107 924.45 649.405L932.379 641.682C933.977 643.022 936.727 645.511 940.5 649.214L948.173 641.682C949.388 642.448 952.138 645.001 956.486 649.405ZM954.056 702.894C949.068 691.086 944.912 685.15 941.715 685.15C939.093 685.15 936.407 687.511 933.594 692.171C930.716 696.831 929.31 700.469 929.31 703.086H942.035C942.418 703.086 942.994 703.214 943.825 703.469C944.656 703.724 945.232 703.852 945.679 703.852H953.545L953.992 702.894H954.056Z" fill="#2B2523"/>
<path d="M1047.29 719.299H979.57V703.852H1002.27C1000.99 698.937 1000.42 695.49 1000.42 693.384C1000.42 686.937 1002.14 681.129 1005.47 675.958C1009.5 670.15 1014.68 667.214 1021.01 667.214C1029.19 667.214 1035.84 671.107 1040.77 678.703C1045.05 685.405 1047.22 693.001 1047.22 701.426V719.235L1047.29 719.299ZM1032.39 647.618C1031.49 648.767 1028.81 651.384 1024.52 655.469C1022.86 654.001 1020.18 651.512 1016.4 648.001L1008.67 655.469C1007.45 654.512 1004.7 652.022 1000.35 647.873C1001.7 646.214 1004.32 643.533 1008.22 639.895C1009.5 640.66 1012.12 643.15 1016.34 647.235L1024.01 639.895C1025.8 641.299 1028.55 643.852 1032.32 647.618H1032.39ZM1034.31 699.065C1034.56 695.426 1033.48 691.405 1031.11 687.192C1028.36 682.214 1025.35 679.788 1021.9 679.788C1019.6 679.788 1017.49 681.129 1015.57 683.873C1013.65 686.618 1012.69 689.107 1012.69 691.405C1012.69 699.192 1016.72 703.086 1024.91 703.086C1029.57 703.086 1032.77 702.448 1034.31 701.171V699.065Z" fill="#2B2523"/>
<path d="M1090.83 715.405C1090.83 723.256 1087.83 730.724 1081.88 737.937C1075.49 745.597 1068.39 749.426 1060.52 749.426H1054.64L1050.93 740.426C1057.65 739.66 1063.59 736.98 1068.9 732.512C1074.27 727.98 1076.96 722.618 1076.96 716.426C1076.96 712.916 1075.87 709.022 1073.7 704.873C1071.65 701.235 1069.54 697.66 1067.56 694.15L1076.25 680.49C1083.16 690.767 1086.74 696.192 1087.06 696.703C1089.43 701.618 1090.71 707.809 1090.71 715.469L1090.83 715.405Z" fill="#2B2523"/>
<path d="M1124.72 719.298H1102.09L1099.47 625.852H1112.38L1114.75 703.852H1124.79V719.298H1124.72Z" fill="#2B2523"/>
<path d="M1146.98 719.298H1119.8V703.852H1146.98V719.298Z" fill="#2B2523"/>
<path d="M1220.39 719.298H1145.83V703.851L1146.02 703.022L1137.9 687.192C1139.62 684.83 1142.31 681.575 1146.15 677.298L1159.32 703.787H1171.92L1172.36 702.83C1170.89 699.319 1168.53 694.085 1165.46 687.192L1173.71 677.17C1176.01 679.66 1178.25 683.873 1180.42 689.873C1181.89 694.532 1183.43 699.192 1185.02 703.787H1199.22L1199.48 702.83C1199.48 699.83 1196.41 692.17 1190.33 679.915C1192.57 677.809 1195.96 674.681 1200.44 670.532C1203.19 677.681 1206.77 688.915 1211.43 704.234L1220.32 703.851V719.298H1220.39ZM1185.54 664.277C1183.62 666.064 1180.8 668.617 1177.03 671.936C1175.37 670.596 1172.81 668.298 1169.29 664.851C1166.16 668.043 1163.6 670.404 1161.56 671.936C1159.83 670.596 1156.95 668.107 1153.05 664.277L1161.11 656.617C1162.77 657.958 1165.39 660.383 1169.23 664.022L1176.97 656.617C1178.18 657.383 1181 659.936 1185.47 664.277H1185.54ZM1175.62 653.49C1174.67 655.341 1172.68 657.511 1169.74 660.128C1168.27 658.979 1166.03 656.873 1163.03 654.064C1163.6 653.107 1165.65 650.873 1169.36 647.426L1175.62 653.49Z" fill="#2B2523"/>
<path d="M1250.06 719.297H1215.08V703.851H1236.63C1236.63 703.851 1235.92 677.744 1234.52 625.148H1247.56L1250.06 719.297Z" fill="#2B2523"/>
<path d="M1274.36 719.298H1261.69L1259.07 624.83H1271.93L1274.29 719.298H1274.36Z" fill="#2B2523"/>
<path d="M1392.85 702.767C1392.85 710.427 1386.9 717.384 1375.13 723.512C1364.71 728.81 1354.93 731.554 1345.97 731.554C1337.02 731.554 1329.92 729.129 1324.3 724.214C1318.67 719.363 1315.86 712.788 1315.86 704.427C1315.86 700.405 1317.52 694.533 1320.72 686.81C1324.36 678.32 1327.88 673.916 1331.27 673.533L1336.96 678.767C1329.86 687.512 1326.34 695.171 1326.34 701.81C1326.34 706.98 1328.71 710.937 1333.63 713.682C1337.6 715.724 1342.52 716.81 1348.34 716.81C1352.75 716.81 1358.38 715.597 1365.09 713.107C1372.7 710.235 1377.31 707.171 1378.78 703.916C1374.37 702.895 1370.02 701.873 1365.6 700.788C1360.23 699.512 1357.55 696.831 1357.55 692.81C1357.55 686.682 1360.68 680.044 1366.82 672.895C1372.96 665.746 1379.16 662.107 1385.36 662.107C1390.35 662.107 1392.85 663.703 1392.85 666.831L1390.42 680.49C1386.32 678.065 1383.45 676.852 1381.85 676.852C1380.57 676.852 1378.01 678.384 1373.98 681.384C1369.95 684.384 1367.91 686.49 1367.91 687.639C1367.91 688.788 1370.14 689.81 1374.49 690.576C1380.31 691.469 1384.4 692.49 1386.58 693.512C1390.8 695.49 1392.91 698.554 1392.91 702.703L1392.85 702.767ZM1362.47 749.363C1361 750.958 1358.38 753.576 1354.61 757.341C1353.33 756.448 1350.64 754.022 1346.49 750.001L1338.81 757.341C1333.5 751.916 1330.88 749.235 1330.88 749.363C1330.88 749.107 1333.44 746.618 1338.43 741.767C1340.03 743.044 1342.71 745.533 1346.55 749.235L1354.22 741.767C1355.44 742.533 1358.25 745.086 1362.54 749.363H1362.47Z" fill="#2B2523"/>
<path d="M1447.77 719.298H1401.22V704.617H1435.88C1435.88 704.617 1436.07 704.362 1436.07 703.979C1436.07 700.787 1433.58 695.936 1428.53 689.298C1423.03 682.021 1418.1 678.383 1413.76 678.383C1412.35 678.383 1411.2 678.83 1410.11 679.787C1409.02 680.681 1408.26 681.128 1407.68 681.128V679.213C1407.68 669.255 1411.45 664.404 1419 664.404C1427.06 664.404 1434.28 671.362 1440.61 685.213C1445.34 695.681 1447.71 701.936 1447.71 703.851V719.362L1447.77 719.298Z" fill="#2B2523"/>
<path d="M1482.43 719.298H1459.8L1457.17 625.852H1469.96L1472.39 703.852H1482.43V719.298Z" fill="#2B2523"/>
<path d="M1520.99 719.297H1477.51V703.85H1509.54C1510.25 703.723 1510.57 703.212 1510.57 702.319C1510.57 701.106 1507.88 693.893 1502.57 680.616L1513.38 670.787C1514.98 675.893 1516.58 680.999 1518.11 686.042C1520.03 692.297 1520.93 697.468 1520.93 701.489V719.297H1520.99ZM1506.73 649.404C1504.36 651.893 1501.74 654.446 1498.8 657.063C1498.29 656.744 1495.6 654.319 1490.87 649.851C1491.83 648.638 1494.45 645.957 1498.8 641.744L1506.73 649.468V649.404Z" fill="#2B2523"/>
</g>
<defs>
<clipPath id="clip0_408_1321">
<rect width="1539.66" height="858" fill="white"/>
</clipPath>
</defs>
</svg>
